/* XPM */
static char *_ea71ea611cb43b7e2eb5bfbe5c4ba15aMvrPLqAlyxlQsNl[] = {
/* columns rows colors chars-per-pixel */
"64 64 168 2 ",
"   c #020301",
".  c #080000",
"X  c #010D00",
"o  c #090B00",
"O  c #060A0E",
"+  c #150000",
"@  c #1B0000",
"#  c #061B0A",
"$  c #240000",
"%  c #2A0101",
"&  c #330001",
"*  c #390000",
"=  c #430000",
"-  c #4D0001",
";  c #590000",
":  c #571E15",
">  c #5D1E1E",
",  c #6B1615",
"<  c #621B17",
"1  c #681915",
"2  c #6F1618",
"3  c #6B191A",
"4  c #711719",
"5  c #741819",
"6  c #5A201F",
"7  c #67201C",
"8  c #631E21",
"9  c #6C1D20",
"0  c #5C2424",
"q  c #722221",
"w  c #752D2E",
"e  c #723429",
"r  c #78342B",
"t  c #55543E",
"y  c #4A5C46",
"u  c #4B5A4A",
"i  c #757F67",
"p  c #9D1C1A",
"a  c #B10F0D",
"s  c #B4110C",
"d  c #A21615",
"f  c #A71915",
"g  c #AD1B16",
"h  c #A41C1C",
"j  c #AB1C1B",
"k  c #B31716",
"l  c #B71912",
"z  c #B51718",
"x  c #B21E1A",
"c  c #98201F",
"v  c #981F24",
"b  c #862523",
"n  c #8B2424",
"m  c #832F25",
"M  c #83292B",
"N  c #892B2B",
"B  c #922323",
"V  c #9A2323",
"C  c #932A27",
"Z  c #9E3F3B",
"A  c #A62426",
"S  c #BA2F2C",
"D  c #B5342F",
"F  c #BD312D",
"G  c #B72C31",
"H  c #A93832",
"J  c #AB373A",
"K  c #A6383B",
"L  c #B63433",
"P  c #BC3538",
"I  c #BB3333",
"U  c #DD1E1C",
"Y  c #E41D1D",
"T  c #E91F1C",
"R  c #D2251F",
"E  c #DE261E",
"W  c #E3211C",
"Q  c #EA221F",
"!  c #E41E23",
"~  c #EA1F23",
"^  c #CE2623",
"/  c #CC2A25",
"(  c #C2262A",
")  c #CF262A",
"_  c #C22C2F",
"`  c #C82D29",
"'  c #D32324",
"]  c #DC2423",
"[  c #D22925",
"{  c #DA2924",
"}  c #D4262A",
"|  c #DD272B",
" . c #D72A2C",
".. c #D82A29",
"X. c #C5312F",
"o. c #C32C31",
"O. c #CE2B30",
"+. c #C03030",
"@. c #CB3133",
"#. c #E42223",
"$. c #E92122",
"%. c #E42329",
"&. c #E02D28",
"*. c #95423E",
"=. c #993F41",
"-. c #B43B40",
";. c #864541",
":. c #8E4347",
">. c #964241",
",. c #9A4145",
"<. c #984A4A",
"1. c #6D826F",
"2. c #73856F",
"3. c #7F816C",
"4. c #FFBDBD",
"5. c #FFE7E3",
"6. c #FFEFED",
"7. c #EEFCED",
"8. c #FFF1E3",
"9. c #FFF3EE",
"0. c #FFF9EC",
"q. c #FFEDF0",
"w. c #FFF4F5",
"e. c #F4FDF4",
"r. c #FDFCF6",
"t. c #F5F3F8",
"y. c #FFF6FA",
"u. c #F7FDFB",
"i. c #FAFAFF",
"p. c #FFFBFF",
"a. c #FFFBFE",
"s. c #FFFAFD",
"d. c #FBFDFC",
"f. c #F9FFFD",
"g. c #FBFFFC",
"h. c #F9FDFF",
"j. c #FBFCFE",
"k. c #FBFFFE",
"l. c #FAFEFF",
"z. c #FBFFFF",
"x. c #F8FEFE",
"c. c #FDFDFD",
"v. c gray99",
"b. c #FFFDFC",
"n. c #FFFCFD",
"m. c #FDFFFC",
"M. c #FCFEFD",
"N. c #FCFFFD",
"B. c #FEFEFC",
"V. c #FFFEFC",
"C. c #FFFEFD",
"Z. c #FEFFFD",
"A. c #FFFFFD",
"S. c #FDFDFF",
"D. c #FFFDFE",
"F. c #FEFCFF",
"G. c #FFFCFF",
"H. c #FFFDFF",
"J. c #FEFDFF",
"K. c #FDFFFE",
"L. c #FDFEFF",
"P. c #FCFFFF",
"I. c #FEFEFE",
"U. c #FFFEFF",
"Y. c #FEFFFF",
"T. c white",
"R. c #FEFEFF",
"E. c #FFFFFE",
/* pixels */
"T.T.T.T.T.T.T.T.T.T.T.T.T.T.T.T.T.T.T.T.T.T.T.T.T.T.T.T.T.T.T.T.T.T.T.T.T.T.T.T.T.T.T.T.T.T.T.T.T.T.T.T.T.T.T.T.T.T.T.T.T.T.T.T.",
"T.T.T.T.T.T.T.T.T.T.T.T.T.T.T.T.T.T.T.T.T.T.T.T.T.T.T.T.T.T.T.T.T.T.T.T.T.T.T.T.T.T.T.T.T.T.T.T.T.T.T.T.T.T.T.T.T.T.T.T.T.T.T.T.",
"T.T.T.T.T.T.T.T.T.T.T.T.T.T.T.T.T.T.T.T.T.T.T.T.T.T.T.T.T.T.T.T.T.T.T.T.T.T.T.T.T.T.T.T.T.T.T.T.T.T.T.T.T.T.T.T.T.T.T.T.T.T.T.T.",
"T.T.T.T.T.T.T.T.T.T.T.T.T.T.T.T.T.T.T.T.T.T.T.T.T.T.T.T.T.T.T.T.T.T.T.T.T.T.T.T.T.T.T.T.T.T.T.T.T.T.T.T.T.T.T.T.T.T.T.T.T.T.T.T.",
"T.T.T.T.T.T.T.T.T.T.T.T.T.T.T.T.T.T.T.T.T.T.T.T.T.T.T.T.T.T.T.T.T.T.T.T.T.T.T.T.T.T.T.T.T.T.T.T.T.T.T.T.T.T.T.T.T.T.T.T.T.T.T.T.",
"T.T.T.T.T.T.T.T.T.T.T.T.T.T.T.T.T.T.T.T.T.T.T.T.T.T.T.T.T.T.T.T.T.T.T.T.T.T.T.T.T.T.T.T.T.T.T.T.T.T.T.T.T.T.T.T.T.T.T.T.T.T.T.T.",
"T.T.T.T.T.T.T.T.T.T.T.T.T.T.T.T.T.T.T.T.T.T.T.T.T.T.T.T.T.T.T.T.T.T.T.T.T.T.T.T.T.T.T.T.T.T.T.T.T.T.T.T.T.T.T.T.T.T.T.T.T.T.T.T.",
"T.T.T.T.T.T.T.T.T.T.T.T.T.T.T.T.T.T.T.T.T.T.T.T.T.T.T.T.T.T.T.T.T.T.T.T.T.T.T.T.T.T.T.T.T.T.T.T.T.T.T.T.T.T.T.T.T.T.T.T.T.T.T.T.",
"T.T.T.T.T.T.T.T.T.T.T.T.T.T.T.T.T.T.T.T.T.T.T.T.T.T.T.T.T.T.T.T.T.T.T.T.T.T.T.T.T.T.T.T.T.T.T.T.T.T.T.T.T.T.T.T.T.T.T.T.T.T.T.T.",
"T.T.T.T.T.T.T.T.T.T.T.T.T.T.T.T.T.T.T.T.T.T.T.T.T.T.T.T.T.T.T.T.T.T.T.T.T.T.T.T.T.T.T.T.T.T.T.T.T.T.T.T.T.T.T.T.T.T.T.T.T.T.T.T.",
"T.T.T.T.T.T.T.T.T.T.T.T.T.T.T.T.T.T.T.T.T.T.T.T.T.T.T.T.T.T.T.T.T.T.T.T.T.T.T.T.T.T.T.T.T.T.T.T.T.T.T.T.T.T.T.T.T.T.T.T.T.T.T.T.",
"T.T.T.T.T.T.T.T.T.T.T.T.T.T.T.T.T.T.T.T.T.T.T.T.T.T.T.T.T.T.T.T.T.T.T.T.T.T.T.T.T.T.T.T.T.T.T.T.T.T.T.T.T.T.T.T.T.T.T.T.T.T.T.T.",
"T.T.T.T.T.T.T.T.T.T.T.T.T.T.T.T.T.T.T.T.T.T.T.T.T.T.T.T.T.T.T.T.T.T.T.T.T.T.T.T.T.T.T.T.T.T.T.T.T.T.T.T.T.T.T.T.T.T.T.T.T.T.T.T.",
"T.T.T.T.T.T.T.T.T.T.T.T.T.T.T.T.T.T.T.T.T.T.T.T.T.T.T.T.T.T.T.T.T.T.T.T.T.T.T.T.T.T.T.T.T.T.T.T.T.T.T.T.T.T.T.T.T.T.T.T.T.T.T.T.",
"T.T.T.T.T.T.T.T.T.T.T.T.T.T.T.T.T.T.T.T.T.T.T.T.T.T.T.T.T.T.T.T.T.T.T.T.T.T.T.T.T.T.T.T.T.T.T.T.T.T.T.T.T.T.T.T.T.T.T.T.T.T.T.T.",
"T.T.T.T.T.T.T.T.T.T.T.T.T.T.T.T.T.T.T.T.T.T.T.T.T.T.T.T.T.T.T.T.T.T.T.T.T.T.T.T.T.T.T.T.T.T.T.T.T.T.T.T.T.T.T.T.T.T.T.T.T.T.T.T.",
"T.T.T.T.T.T.T.T.T.T.T.T.T.T.T.T.T.T.T.V.T.T.T.T.T.T.V.V.V.T.T.T.T.T.T.V.g.T.T.T.T.x.T.T.T.T.T.T.T.T.T.T.T.T.T.T.T.T.T.T.T.T.T.T.",
"T.T.T.T.T.T.T.T.T.T.T.T.T.T.T.T.T.T.T.T.T.T.T.T.T.T.V.V.V.r.T.T.T.T.V.V.V.g.V.T.x.x.T.T.T.T.T.T.T.T.T.T.T.T.T.T.T.T.T.T.T.T.T.T.",
"T.T.T.T.T.T.T.T.T.T.T.T.T.T.T.T.T.T.T.T.T.T.T.T.T.g.T.g.V.V.g.T.V.T.V.V.e.g.T.T.T.T.T.T.T.T.T.T.T.T.T.T.T.T.T.T.T.T.T.T.T.T.T.T.",
"T.T.T.T.T.T.T.T.T.T.T.T.T.T.T.T.T.T.T.T.T.T.T.T.T.T.x.T.T.V.T.g.V.V.V.r.e.e.T.g.T.T.T.T.V.V.T.T.T.T.T.T.T.T.T.T.T.T.T.T.T.T.T.T.",
"T.T.T.T.T.T.T.T.T.T.T.T.T.T.T.T.T.T.T.T.T.T.T.T.T.T.T.i.T.x.T.V.V.r.r.7.# X T.T.T.T.T.T.g.x.V.T.T.T.T.T.T.T.T.T.T.T.T.T.T.T.T.T.",
"T.T.T.T.T.T.T.T.T.T.T.T.T.T.T.T.T.T.T.T.T.T.V.V.T.T.a.i.O   g.V.r.r.  X 1.u   T.T.x.T.T.g.g.V.V.T.T.T.T.T.T.T.T.T.T.T.T.T.T.T.T.",
"T.T.T.T.T.T.T.T.T.T.T.T.T.T.T.T.T.T.T.T.T.V.g.g.r.T.T.t.O     g.e.X 2.y y X V.T.T.T.T.T.V.V.V.T.T.T.T.T.T.T.T.T.T.T.T.T.T.T.T.T.",
"T.T.T.T.T.T.T.T.T.T.T.T.T.T.T.T.T.T.T.T.V.V.V.V.V.V.y.y.w.s.    X i t o   r.V.T.T.T.T.T.T.V.V.T.T.T.T.T.T.T.T.T.T.T.T.T.T.T.T.T.",
"T.T.T.T.T.T.T.T.T.T.T.T.T.T.T.T.T.T.T.V.V.V.V.V.V.s.w.$ & % @ . 3.t @ $ 8.0.r.V.x.x.a.a.T.T.T.T.T.T.T.T.T.T.T.T.T.T.T.T.T.T.T.T.",
"T.T.T.T.T.T.T.T.T.T.T.T.T.T.T.T.T.T.T.V.T.V.T.T.s.6.& :.,.>.& % @ @ e r : $ 9.V.g.T.T.T.T.T.s.T.T.T.T.T.T.T.T.T.T.T.T.T.T.T.T.T.",
"T.T.T.T.T.T.T.T.T.T.T.T.T.T.T.T.T.T.y.a.T.T.T.y.w.& =.-.G I H ; - m n B N < % 9.V.T.T.T.T.T.T.T.T.T.T.T.T.T.T.T.T.T.T.T.T.T.T.T.",
"T.T.T.T.T.T.T.T.T.T.T.T.T.T.T.T.T.T.T.T.T.T.T.w.% <.4.(  . .` F L L j h V b > $ w.V.T.x.T.T.T.T.T.T.T.T.T.T.T.T.T.T.T.T.T.T.T.T.",
"T.T.T.T.T.T.T.T.T.T.T.T.T.T.T.T.T.T.x.T.T.T.r.@ ;.4.@.| #.U ] { } ) ) z j c 5 > @ s.T.T.x.x.x.T.T.T.T.T.T.T.T.T.T.T.T.T.T.T.T.T.",
"T.T.T.T.T.T.T.T.T.T.T.T.T.T.T.T.r.T.T.T.T.a.w.& Z F ' $.T $.$.#.! %.] ^ k h B 3 $ s.V.T.x.T.x.x.T.T.T.T.T.T.T.T.T.T.T.T.T.T.T.T.",
"T.T.T.T.T.T.T.T.T.T.T.T.T.T.T.T.V.V.T.T.a.y.% *.D [ #.Q Y ~ ! ! ! ! #.R l j V M 0 + s.s.T.T.T.T.T.T.T.T.T.T.T.T.T.T.T.T.T.T.T.T.",
"T.T.T.T.T.T.T.T.T.T.T.T.T.T.T.T.V.V.T.T.T.w.& Z X.] Y T ~ $.%.! ~ ! ] [ l f V N 6 @ w.T.T.s.T.x.T.T.T.T.T.T.T.T.T.T.T.T.T.T.T.T.",
"T.T.T.T.T.T.T.T.T.T.T.T.T.T.T.T.V.x.T.T.a.w.$ >._ ] Q T T ~ ! #.~ #.] [ k d V 2 0 + r.T.T.T.x.g.T.T.T.T.T.T.T.T.T.T.T.T.T.T.T.T.",
"T.T.T.T.T.T.T.T.T.T.T.T.T.T.T.T.g.T.i.T.a.y.6.= P } #.T T $.$.#.#.] ..a j A n 9 $ r.V.T.T.T.x.T.T.T.T.T.T.T.T.T.T.T.T.T.T.T.T.T.",
"T.T.T.T.T.T.T.T.T.T.T.T.T.T.T.T.g.V.T.T.T.T.r.% K _ | Y $.Q W W U { s x p B , > @ r.T.T.T.T.T.a.T.T.T.T.T.T.T.T.T.T.T.T.T.T.T.T.",
"T.T.T.T.T.T.T.T.T.T.T.T.T.T.T.T.V.r.T.T.T.T.V.9.- J o.' ] #.W E &.^ g p B 4 8 % s.s.T.T.T.T.a.T.T.T.T.T.T.T.T.T.T.T.T.T.T.T.T.T.",
"T.T.T.T.T.T.T.T.T.T.T.T.T.T.T.T.g.V.V.g.T.g.e.r.5.* n P O.' { { / g p C 2 > % q.V.T.u.T.T.T.T.T.T.T.T.T.T.T.T.T.T.T.T.T.T.T.T.T.",
"T.T.T.T.T.T.T.T.T.T.T.T.T.T.T.T.V.V.V.V.g.T.x.g.V.9.* M v P +.S p V b 3 0 $ w.a.g.x.x.T.T.T.T.T.T.T.T.T.T.T.T.T.T.T.T.T.T.T.T.T.",
"T.T.T.T.T.T.T.T.T.T.T.T.T.T.T.T.T.e.T.T.T.T.T.V.V.V.w.$ & w q 1 1 7 0 $ @ w.s.T.T.u.T.T.s.s.V.V.T.T.T.T.T.T.T.T.T.T.T.T.T.T.T.T.",
"T.T.T.T.T.T.T.T.T.T.T.T.T.T.T.T.x.T.T.V.T.T.T.T.T.T.s.s.w.@ $ $ $ $ @ r.s.s.T.T.u.x.T.r.T.V.V.V.T.T.T.T.T.T.T.T.T.T.T.T.T.T.T.T.",
"T.T.T.T.T.T.T.T.T.T.T.T.T.T.T.T.T.T.T.T.T.T.T.T.T.T.T.a.a.a.y.y.w.r.s.V.T.T.T.T.T.T.T.T.T.V.V.V.T.T.T.T.T.T.T.T.T.T.T.T.T.T.T.T.",
"T.T.T.T.T.T.T.T.T.T.T.T.T.T.T.T.T.T.T.T.x.T.T.T.T.T.T.T.T.T.a.a.T.T.T.T.T.V.T.T.T.T.T.T.T.T.T.T.T.T.T.T.T.T.T.T.T.T.T.T.T.T.T.T.",
"T.T.T.T.T.T.T.T.T.T.T.T.T.T.T.T.T.T.T.T.T.T.T.T.T.g.g.V.T.T.T.T.T.T.T.T.V.V.V.V.T.T.T.T.T.T.T.T.T.T.T.T.T.T.T.T.T.T.T.T.T.T.T.T.",
"T.T.T.T.T.T.T.T.T.T.T.T.T.T.T.T.T.T.T.T.T.T.T.T.x.g.V.V.g.g.T.T.T.T.T.V.V.V.V.V.T.T.T.T.T.T.T.T.T.T.T.T.T.T.T.T.T.T.T.T.T.T.T.T.",
"T.T.T.T.T.T.T.T.T.T.T.T.T.T.T.T.T.T.T.T.T.T.T.x.x.V.V.V.g.g.g.T.T.T.T.T.V.V.V.T.T.T.T.T.T.T.T.T.T.T.T.T.T.T.T.T.T.T.T.T.T.T.T.T.",
"T.T.T.T.T.T.T.T.T.T.T.T.T.T.T.T.T.T.T.T.T.T.x.x.V.V.V.V.g.g.x.x.x.T.T.T.T.T.T.T.T.T.T.T.T.T.T.T.T.T.T.T.T.T.T.T.T.T.T.T.T.T.T.T.",
"T.T.T.T.T.T.T.T.T.T.T.T.T.T.T.T.T.T.T.T.T.T.T.T.T.T.T.T.T.T.T.T.T.V.T.T.T.T.T.x.T.T.V.V.V.T.T.T.T.T.T.T.T.T.T.T.T.T.T.T.T.T.T.T.",
"T.T.T.T.T.T.T.T.T.T.T.T.T.T.T.T.T.T.T.T.T.T.T.T.T.T.T.T.T.T.T.T.T.V.T.T.T.T.T.x.T.T.V.V.V.V.T.T.T.T.T.T.T.T.T.T.T.T.T.T.T.T.T.T.",
"T.T.T.T.T.T.T.T.T.T.T.T.T.T.T.T.T.T.T.T.T.T.T.T.T.T.T.T.T.T.T.T.T.T.T.T.T.T.T.T.T.T.T.T.T.T.T.T.T.T.T.T.T.T.T.T.T.T.T.T.T.T.T.T.",
"T.T.T.T.T.T.T.T.T.T.T.T.T.T.T.T.T.T.T.T.T.T.T.T.T.T.T.T.T.T.T.T.T.T.T.T.T.T.T.T.T.T.T.T.T.T.T.T.T.T.T.T.T.T.T.T.T.T.T.T.T.T.T.T.",
"T.T.T.T.T.T.T.T.T.T.T.T.T.T.T.T.T.T.T.T.T.T.T.T.T.T.T.T.T.T.T.T.T.T.T.T.T.T.T.T.T.T.T.T.T.T.T.T.T.T.T.T.T.T.T.T.T.T.T.T.T.T.T.T.",
"T.T.T.T.T.T.T.T.T.T.T.T.T.T.T.T.T.T.T.T.T.T.T.T.T.T.T.T.T.T.T.T.T.T.T.T.T.T.T.T.T.T.T.T.T.T.T.T.T.T.T.T.T.T.T.T.T.T.T.T.T.T.T.T.",
"T.T.T.T.T.T.T.T.T.T.T.T.T.T.T.T.T.T.T.T.T.T.T.T.T.T.T.T.T.T.T.T.T.T.T.T.T.T.T.T.T.T.T.T.T.T.T.T.T.T.T.T.T.T.T.T.T.T.T.T.T.T.T.T.",
"T.T.T.T.T.T.T.T.T.T.T.T.T.T.T.T.T.T.T.T.T.T.T.T.T.T.T.T.T.T.T.T.T.T.T.T.T.T.T.T.T.T.T.T.T.T.T.T.T.T.T.T.T.T.T.T.T.T.T.T.T.T.T.T.",
"T.T.T.T.T.T.T.T.T.T.T.T.T.T.T.T.T.T.T.T.T.T.T.T.T.T.T.T.T.T.T.T.T.T.T.T.T.T.T.T.T.T.T.T.T.T.T.T.T.T.T.T.T.T.T.T.T.T.T.T.T.T.T.T.",
"T.T.T.T.T.T.T.T.T.T.T.T.T.T.T.T.T.T.T.T.T.T.T.T.T.T.T.T.T.T.T.T.T.T.T.T.T.T.T.T.T.T.T.T.T.T.T.T.T.T.T.T.T.T.T.T.T.T.T.T.T.T.T.T.",
"T.T.T.T.T.T.T.T.T.T.T.T.T.T.T.T.T.T.T.T.T.T.T.T.T.T.T.T.T.T.T.T.T.T.T.T.T.T.T.T.T.T.T.T.T.T.T.T.T.T.T.T.T.T.T.T.T.T.T.T.T.T.T.T.",
"T.T.T.T.T.T.T.T.T.T.T.T.T.T.T.T.T.T.T.T.T.T.T.T.T.T.T.T.T.T.T.T.T.T.T.T.T.T.T.T.T.T.T.T.T.T.T.T.T.T.T.T.T.T.T.T.T.T.T.T.T.T.T.T.",
"T.T.T.T.T.T.T.T.T.T.T.T.T.T.T.T.T.T.T.T.T.T.T.T.T.T.T.T.T.T.T.T.T.T.T.T.T.T.T.T.T.T.T.T.T.T.T.T.T.T.T.T.T.T.T.T.T.T.T.T.T.T.T.T.",
"T.T.T.T.T.T.T.T.T.T.T.T.T.T.T.T.T.T.T.T.T.T.T.T.T.T.T.T.T.T.T.T.T.T.T.T.T.T.T.T.T.T.T.T.T.T.T.T.T.T.T.T.T.T.T.T.T.T.T.T.T.T.T.T.",
"T.T.T.T.T.T.T.T.T.T.T.T.T.T.T.T.T.T.T.T.T.T.T.T.T.T.T.T.T.T.T.T.T.T.T.T.T.T.T.T.T.T.T.T.T.T.T.T.T.T.T.T.T.T.T.T.T.T.T.T.T.T.T.T.",
"T.T.T.T.T.T.T.T.T.T.T.T.T.T.T.T.T.T.T.T.T.T.T.T.T.T.T.T.T.T.T.T.T.T.T.T.T.T.T.T.T.T.T.T.T.T.T.T.T.T.T.T.T.T.T.T.T.T.T.T.T.T.T.T.",
"T.T.T.T.T.T.T.T.T.T.T.T.T.T.T.T.T.T.T.T.T.T.T.T.T.T.T.T.T.T.T.T.T.T.T.T.T.T.T.T.T.T.T.T.T.T.T.T.T.T.T.T.T.T.T.T.T.T.T.T.T.T.T.T.",
"T.T.T.T.T.T.T.T.T.T.T.T.T.T.T.T.T.T.T.T.T.T.T.T.T.T.T.T.T.T.T.T.T.T.T.T.T.T.T.T.T.T.T.T.T.T.T.T.T.T.T.T.T.T.T.T.T.T.T.T.T.T.T.T."
};
