/* XPM */
static char *_bdd2b50074745819063d3948f929589rOsVJigCQkDyb9FE[] = {
/* columns rows colors chars-per-pixel */
"64 64 176 2 ",
"   c #037D00",
".  c #0C7E06",
"X  c #0C7E09",
"o  c #127D07",
"O  c #117D09",
"+  c #058205",
"@  c #0C8107",
"#  c #058709",
"$  c #0C840A",
"%  c #078E0E",
"&  c #0D8B0E",
"*  c #13840D",
"=  c #19840E",
"-  c #128A0E",
";  c #0D920F",
":  c #0F8610",
">  c #0E8E11",
",  c #158610",
"<  c #1A8612",
"1  c #148C12",
"2  c #1A8D15",
"3  c #168F19",
"4  c #1B8E19",
"5  c #079512",
"6  c #0D9212",
"7  c #0E9918",
"8  c #149215",
"9  c #1A9116",
"0  c #169917",
"q  c #169418",
"w  c #1B941A",
"e  c #169A1B",
"r  c #1C9A1D",
"t  c #218717",
"y  c #208C17",
"u  c #228D1A",
"i  c #22931C",
"p  c #28941E",
"a  c #219A1E",
"s  c #1E9D20",
"d  c #239621",
"f  c #2B9623",
"g  c #249C22",
"h  c #2A9D24",
"j  c #2E9E29",
"k  c #309E27",
"l  c #319E2B",
"z  c #1DA223",
"x  c #24A225",
"c  c #2AA126",
"v  c #25A528",
"b  c #2BA52A",
"n  c #27AA2B",
"m  c #2CAA2D",
"M  c #32A52D",
"N  c #3BA22C",
"B  c #32AA2E",
"V  c #2DB02E",
"C  c #31B02F",
"Z  c #2DAC30",
"A  c #35A531",
"S  c #39A632",
"D  c #34AC32",
"F  c #3AAC34",
"G  c #3DAC38",
"H  c #2EB232",
"J  c #28B834",
"K  c #34B234",
"L  c #3AB136",
"P  c #37B935",
"I  c #36B638",
"U  c #3CB439",
"Y  c #3BB53C",
"T  c #3CB43A",
"R  c #36BB3C",
"E  c #3CBA3D",
"W  c #3FBA3E",
"Q  c #3CBA3D",
"!  c #40AB37",
"~  c #42AE39",
"^  c #40B239",
"/  c #40B33A",
"(  c #43B53B",
")  c #42B53C",
"_  c #40B83D",
"`  c #42BA3F",
"'  c #40BD3F",
"]  c #42BA3E",
"[  c #3DC03C",
"{  c #40C33F",
"}  c #3DBE40",
"|  c #3EBD41",
" . c #46B641",
".. c #4AB642",
"X. c #46B940",
"o. c #44BA40",
"O. c #41BC40",
"+. c #41BF41",
"@. c #40BE40",
"#. c #41BF42",
"$. c #42BE42",
"%. c #44BC41",
"&. c #46BC42",
"*. c #46BE43",
"=. c #45BC44",
"-. c #44BC42",
";. c #4BB843",
":. c #48BB42",
">. c #49BC43",
",. c #4ABB47",
"<. c #49BF45",
"1. c #4BBC46",
"2. c #4EBD44",
"3. c #4FBD47",
"4. c #4DBF46",
"5. c #4FBE46",
"6. c #4ABD44",
"7. c #46BD49",
"8. c #4DBD49",
"9. c #51BB45",
"0. c #51BE49",
"q. c #50BE4B",
"w. c #51BE4A",
"e. c #3EC142",
"r. c #40C142",
"t. c #42C042",
"y. c #45C043",
"u. c #42C543",
"i. c #43C144",
"p. c #42C344",
"a. c #44C044",
"s. c #44C244",
"d. c #41C444",
"f. c #40C747",
"g. c #44C244",
"h. c #4AC046",
"j. c #4AC146",
"k. c #45C648",
"l. c #47C449",
"z. c #4BC348",
"x. c #4CC34A",
"c. c #45C848",
"v. c #4FCC4E",
"b. c #4DC94C",
"n. c #50C34A",
"m. c #53C44C",
"M. c #59C64F",
"N. c #56C94F",
"B. c #4FCC51",
"V. c #56C551",
"C. c #54CC51",
"Z. c #5ACC53",
"A. c #5FCE58",
"S. c #56D256",
"D. c #5BD257",
"F. c #57D458",
"G. c #5CD35B",
"H. c #5CD55A",
"J. c #5DD95C",
"K. c #61CE57",
"L. c #64D75E",
"P. c #63D45C",
"I. c #69D55E",
"U. c #62D85E",
"Y. c #6AD561",
"T. c #67DA61",
"R. c #65DC62",
"E. c #6CDF66",
"W. c #6ADC63",
"Q. c #6EDC69",
"!. c #6DD969",
"~. c #71DE69",
"^. c #65E164",
"/. c #6AE166",
"(. c #6CE269",
"). c #71E168",
/* pixels */
"+.1 1 3 4 * ;.4.v n 6 ; u.p.1 d.8 ; 1 ( 1.9 * * 9 s m # 6 k.* 4.2 O q.2 < S i 2 b Q 9 K w p.9 1 2 @ 2 *.9 8 1 m g v a.& 9 +.6 e.",
"x q Y F ,.l G M r r r V z e.1 n 6 8 B h h B M d 9 Z e q Z x F h S * M 2 - d 4 h M c 9 g 8 v & D h.1 4.*.m r q m v w x q 9 x H z ",
"% 6 G.1.Q.q.d 1 9 9 r u.+ d.9 8 8 % y.a 9 T =.b s I > x } 1 o.i 9.< 4 2 - 2 2 ^ b 9 q 6 8 8 + 1.E.9 L.z.+.z 8 n g 8 8 & 9 w Q 8 ",
"8 K B h S d L D c x C x % s K T & K g D 3 a g 9 & v n 9 g 9 d F l * G 4 M d M b B m q v w K & h b ^ M *.g v v r B ' v.B 9 9 r 9 ",
"8 +.w 2 2 2 F o.F B D % 8 6 +.` 1 *.9 ` 1 2 w $ * g M 3 4 - < 4.2 $ 4.i F h L g v +.w D g p.1 9 2 ;.1 1.- F M 2 M n.R.h.1 9 8 q ",
"l.+.9 $ /.2 2 D 1.& 8 0 d.6 (.2 >.. 1 Y w U z.b 1 1 w 1 * 9.o 2 3 1 , 2 A.A & I m & 9 C.w +.> d.$ U.*.2 4 * $ M h 2 $ 1 - T # } ",
"' x 9 1 C.- h ` T g m 8 g D b.1 h 2 m v w o.v w w v 1 w M h 8.2 1 D w 1 ) h 1 x r > w *.9 v r s 1 b.v a.D o.L m w w b 3 m x D g ",
"' 8 1 9 o.* M o.m v K 1 9 *.+.9 2 2 +.w w T 9 9 g Z $ d 4.2 E.1 3 *.1 w F c 9 1 q 9 9 K 9 8 9 q 9 ` 1 ^.h.Z.S.v 1 v *.3 +.w o.w ",
"1 y.9 1 w o.h 9 1 ` b.2 h.1 9 +.1.. w 9 D w 8 +.F.9 1 3 4 8.@ 3 *.9 *.^.b 1 L a b ` 1 9 > 8 +.a.*.$ 1 h.2 G b m c 1 2 2 G.2 1 x.",
"9 D 1 1 2 B b h d D Y c B 3 9 b 9.F b 9 M 3 1 n D w g w 2 V.1 3 h.$ B Q g 9 c w d B 8 8 0 v B +.B & x m 1 c h g w w c 1 C.w M A ",
"- 9 1 9 9 9 F F M h i 1.9 - w 2 ;.~.,.d 1 $ $ 1 $ d D 3 * (.1 3 o.* 1 w 9 1 1 9 2 1 1 8 r } 1 +.8 6 E 8 + & 9 8 # r *.1 o.9 o.w ",
"F U w B b.8 D D 4 M  .R.F 3 2 B l M j 1 , 2 D g w M g i A b F 2 a B 1 D K g 1 - h D D r m z 8 x 6 % z H 1 n a n w w r K g 3 i F ",
"z.o.2 ` U.w D D 2 A V.!.o.1 3 *.1 w 3 1 9 1 +.c g D 2 g =.1  .2 1 ` 9 =.` g 9 9 v +.Q g T 9 r % r 8 1 } > Z n m x 9 9 Q 2 2 < ..",
"=.* i o.@ - D D , 2 j ..2 h.@ 1 w 1 o.R.b.w 1 b Y b G.G 3 2 , 1.2 2 1.E.v 1 1 I m w U.@ g ^.e.8 d.+ +.d.q & n n 8 1 8 x.- i ..< ",
"4 4 1 1 ` a i w * F q.i 4 L.U 9 Y 1 i o.h T w 1 1 h G 4 $ 2 Y.= 4 ) L.z.h 1 9 w w w ` 3 r p.q E 0 6 q r % 6 I b.x g Y w 2 ^ p I.",
"2 4 w 9 Q a 4 2 4 / 8.4 4 P.T 1 Q 3 w F g L 2 2 2 p F 4 4 4 I.= 1 T J.E x 8 9 9 9 r T & r E > R 6 0 w 8 r q D b.h g T 9 w ` 2 D.",
"K.y U w g Y b 1 h ;.1.o.1 w w 9 w * ) g w d 1 A G * h 1.D.2 4.2 9 q z 0 K v D 1 h T 0 6 8 0 6 e 8 1 ( 9 T a w 9 9 w w @ w | > z ",
"W.2 ( w w Y g 4 h ) ` T w 1 g 3 4 $  .d 3 1 , A S , b h.P.- ,.2 q r 7 6 Z s B 9 r } q 6 r s 6 6 8 1 o.2 ^ d 9 w - 9 w $ w K q 6 ",
"4.* 1 & l.9 $ @ h M 1 & a.w Q 9 o.4 1 Y c $ w 1 2 h B w h.i < n.1 e.e.5 6 6 > 9 8 8 W w b.T.@ 1 > 8 - w - * F C.g g l.1 o.$ 1 > ",
"4 o.*.w 9 1 1 g D 1 a +.9 + w +.h.* o.w D 1 =.j 4 D 9 9 2 P.= 2 o.9 d.> H r K 0 6 % r L w d P.` 8 + Q U.1.p i F D.+.9 o.w T 9 } ",
"1 D B v w 9 g v v w x D w # w D K 1 1.1 b w F d 3 D v v h M.p < ;.2 B 9 m r E x e 6 6 B h 1 m.1.> > K D.L h 4 T b.L 9 K h L 1 D ",
"9 * $ ` 1 3 D D v v - - 1 1 3 w 1 9 o.i 9 $ 1 2 1 m F.a.o.y 9.u 2.$ 2 9 9 K E k.v 6 9 g T 1 4 =.9 & 9 4.1 1 B H.D 9 & 9 *.- + 9 ",
"2 M 2 ;.1 F D g w m c 2 >.M 2 * m 1 c 9 v & 3 1 9 m H v a < l S b b 1 d.w g T m g 8 & w h 1.F h @ >.2 M b D m Q c 2 1 - h 9 v > ",
"1 o.i ;., 1.v 1 & b F 9 W.1.1 $ *.1 - $ D s 1 1 9 K 1 1 $ 9 2 ,.1 +.9 R.v 1 L a 1 - 9 9 w E.*.1 * W.2 - *.a.v B c 1 9 + 9 r +.9 ",
"$ 2 ) i ) w 1 g m 8 h ` @ 9 2 ` 2 1.2 U w E 9 m T a m r >.W.1.R.` 2 ` =.o.a 1 2 - @ Q 0 E 0 1 1 ` h.2 2 2 2 h h D n 8 8 w H.w @ ",
"a 1 M 2 U * w v v & h *.- 1 1 L c N.h B g Z x n v g K w G 4.F x.F 1 L B D h h 4 p M m r m z q g D *.h 2 f < i M m n 8 n w Z.1 i ",
"' 9 @ 1 w $ m m 8 8 v +.1 - 1 - *.W.x.d 1 8 a.m q g D 1 2 2 3 3 - 2 1 9 1 v >.p ( L.w > e e.& 1.. ) a.9 o.h w M h 1 9 *.9 ` 2 x.",
"a.1 +.w $ o.v v n 8 8 6 l.e.8 8 & 1 * F 9 E 1 m K 9 1 b E.>.1 o.` $ *.- Q v * = M ` - 9 0 6 + 2 1.w R.+.1 9 $ * 1 M ) 2 o.9 1.E.",
"K 1 Z g 4 F g r x 6 ; 8 K H r > # g w B r b.w v D m w h P.F 3 F G i F h L B 1 y b L 1 r > r - 1 D w C.D a i 9 d 2 h N.a B w L P.",
"1 w 1 o.2 3 9 w 8 8 8 ; 6 % e.8 6 p.+.w T H.w 1 x H.B i o.. 4 9 1 o.2 ;.1.` h ( M 2 i T s } & 9 9 - 1 & *.f ^ F 2 F ).h.- 8 9 2.",
"9 c 2 o.F * - w a & 8 6 z 6 m 8 6 n m w *.x.c g r Q B b F * j 1 c D - M F F w h F F 9 M 9 m c 2 F 2 9 v m.F F ) a M C.B v x w B ",
"1 =.2 o.(.$ 1 h B 8 8 ; p.8 1 & 6 8 & 1 C.a +.b 9 - v T * < q.1 a.9 @ 1 1 9 1 1 ^ W.@ 1 1 1 *.1 /.1 9 *.).M.M >.B v y.8 y.' 1 9 ",
"2 4 * U 1 z.g $ 9 8 g +.1 +.9 *.^.9 +.w $ T 9 8 r K 9 s 1.2 u X y.1 a.9 $ m g 9 v o.w Y 1 1 @ 1 +.w ` 1 2 4 b v K K 9 ` U.- 1 1 ",
"F * h b 9 v w 1 8 > 9 v D v 1 *.D 1 c 9 1 v & g Y W 1 w d 2 M ` d.& v m 9 r r v v m 1 c F *.- D x & b 9 * h b r 0 n K v D B 1 F ",
">.@ o.w 9 q 1 9 9 $ - 9 W 1 9 *.+ r 6 8 % 6 1 D b.a.& & $ 1 9.E.d.6 % l.r 8 1 K D 9 $ d m.R.1 a.0 8 1 1 @ B n 8 6 z E - w o.2 ;.",
"f G f F 8 8 q s v v h 2 g 1 9 H.K m H 0 v r 9 w v v r m 3 F p m.x H 6 r & 1 m v m D 3 w w D w r H H 1 K 1 r n K x 0 x 1 1 h F h ",
"2 1.i =.8 q > v b D U - 8 8 8 ^.+.a.b.w K r 8 8 8 8 x K w 1.. 1.> k.> 9 - $ D g c ` 1 1 1 3 9 8 p.+.8 p.8 6 m p.v 8 1 8 1 w >.2 ",
"1 1 i X w > D K 3 D ` *.> 8 q 1 +.1 1 w 9 1 W m 8 r K r *.1 1 z.9 9   9 1 F d 9 3 d G.g Y 1 l.a.1 1 8 > +.v 8 m J.l.8 1 9 *.- 9 ",
"D * S 2 w D n w 3 w h b & > 9 x.v 1 9 # v m v q > 8 r 9 c F n.i F 3 - F M b M 9 a B M F d w g g D B 9 D H.b x v +.T 1 K w a F - ",
"a.@ ;.y 4 o.g 2 2 2 2 3 & & w T.9 > 9 & D d.q 8 8 & 1 3 9 ;.W.* o.w 2 o.4.b D w b T 4 F , 4 1 w o.+.1 1.L.F b v K m q Q 9 i ) 2 ",
"*.w I.p 2 * - F 1.2 i o.1 9 T.2 a.> 9 Q a T q Z K r +.L 2 4.4 o.w Q w T.c 9 9 K m 9 A.2 2 ..= ,.w $ 2 o.2 D m m v 1 9 9 >.D.a ' ",
"F h ( i M 1 h ( ^ i k F 3 1 / 4 D v 1 x.a B 9 r v r K B h A.h B 9 m v +.r 1 & v m v ^ < 2 q.p S U d 2 h.9 v z z r r b L T C.6 H ",
"2 x.2 = 1.9 F o.F M ~ - 4 1 * 1 1 a.$ Z.f 1 1 8 6 8 & a x./.+.q & 8 +.9 9 q 8 6 x +.1 2 i 6.4.2 E.1.- *.q 6 5 5 8 x h.W.9 Q 6 5 ",
"1 d B 9 g 9 a B M i p - b.F 1 1 9 v D n.i F 9 v m r b w h v s 6 K > J.9 v r v q 8 w 9 a D i h 1 x.h D v 6 6 z z v m a M 2 g 6 J ",
"9 - ` a 8 & 9 h M 2 2 . /.o.3 1 9 1 Q a.g Q 9 B T v K 1 9 9 * 1 ' 8 ^.9 L g K s & $ 9 r T 9 > 8 +.q +.1 8 8 m z m K r $ w - 8 e.",
"a.+ 9 J.l.8 D D 1 9 2 1 3 1 1 $ *.9 8 K k.9 w o.D.a +.8 W 1 (.>.y.8 - h.;.h 2 1 3 w o.2 9 a.% c.  +.& - *.r 1 H x x Q 9 J.1 9 - ",
"0 8 & g q 8 8 m m v D 9 & 9 w $ w ( 9 T g 9 T M w g K 0 0 9 x.1 ' 9 _ 2 m.m.2 m.Z.G / d L r e.0 E d.' 9 U.F 1 9 8 8 s & h o.- y ",
"> 8 q 9 9 w w a x n B 3 @ r 1 9 w ) 1 D d 9 U M a v K 8 x q ` r P 8 y.d n.x.i 4.m.;.o.p U 1 a.q W K Q 9 U.M 9 9 q r 1 r h G i p ",
"# 3 L 1 Q 1 q q 9 1 w 2 1 Q 8 8 o.w O u < F h M +.S.D h H.T r Y 0 ; y.D.B a - 4 w d G.L 9 1 T.- r q r 8 y.a c h B b 9 ) Z.f o.T ",
"1 1 Y w +.q > 1 1 - i 2 1 =.q q Y w * < O ~ i B k.B.b h R.*.w Y r & Y J.x 8 9 - 1 w U.D 9 w H.1 1 w 8 8 Q c c b M F w ) K.1 Q W ",
"4.2 2 T 1 9 1 v B B F 1 w o.} 8 9 l.3 3 2 2 o.B 8 6 8 g h.  h.1 y.8 8 8 q D a T B 9 U 9 r +.+ 1 - *.8 a.1 D M M h h *.* 9 - w 8 ",
"2 $ 2 w 1 =.h h D 9 1 * 2 1.# : =.3 Q } g @ w & > 0 6 r *.2 >.- *.- d.+ > & 9 9 1 9 i i Q a.- 9 ,.1 1 w 1 w M b 2 b *.>.9 ] ' % ",
"2 i M 2 9 K v v D a - $ 1 B - f G * k.I q r 9 g r 8 r r L < m.4 B 9 +.s 8 > 6 r r 8 h i D D h 2 m.d 4 1 S u M l f M D D c K V x ",
"2 =.R.w # & K D T T w 1 1 9 4 ;.u . Q e 8 I 9 m T g m 1 2 4 W.4 * 3 a.W s 8 8 I m w T - & 9 h.1 Y.3.4 X !.G l M m.4.. 1 *.1 8 e.",
"w v B.w 1 8 x v K v r n 8 8 M f N = b v e v 1 D T w D Y D 1 C.b $ D c g q 8 x x m x v 9 9 *.c A G j A , G A A u j F b 9 ` 8 & { ",
"& w | w 9 1 8 v m 8 z E 8 1 1.* 9.2 1 Y e > w B T 1 B U.Q 9 +.*.3 =.@ 2 9 8 K r x W > & c R.2 1.* - 4.2 < S A , < h =.- Q 8 q [ ",
"* 2 2 1 T.9 B L 1 v H r U.4.= = i ) 1 9 8 6 d.v r D b K q q 1 1 w 4 R.o.s } n 1 q r F.8 1 w o.w ` 9 1.1 * 2 2 o.m.F 2 1 r Y q q ",
"f b i w h.h M h 9 r Z v U.F o k 1 D 1 9 s 6 Z v w D M v v z 8 g F h z.D x E r 6 ; 9 +.h i d G - F - F 2 * i i  .1.j 1 g w m 1 x ",
"=.E.w @ 1 *.b 9 1 8 s p.*.4 4 ;.9 + 9 1 K q 6 1 4 k x.h +.y.& *.E.x.$ q E s 8 q w - i L i o.* # 1 - 9 2 2 F b D h 1 w =.: w 9 a.",
"3 w Q w 1 9 w # & 9 9 9 - *.2 2 1 +.9 9 1 1 q 8 2 = f F 9 (.*.9 . 2 1 > 1 9 K r b 9.P.< h (.3 +.- ` *.o.* 2 B g 1 2 3 9 @ 1 3 3 ",
"1 g D d 3 3 r r 1 w 9 c 9 L 4 d 1 D 1 1 3 : z r 2 < M M i h.B h i i 8 r w g m h M ! 9.f f x.g D 1 D *.D w 2 D v 1 w g v : w 4 d ",
"$ o.d o.3 4 m K m c d o.- - w ;.@ 2 * , 3 9 | n 2 f M * - 9 - ` ` h.# a.w B g U M = y ~ < * 1.1 9 1 1.* 1.h T T w c =.+.9 =.X 8.",
"$ b 4 ) 1 3 d g r h b Z.< 4 h F $ b * , w g Z g 9 9 g 2 c 9 c ] B B 8 b w B g j f u f l 2 - o.1 c 4 A 1 M c T m w w Z Z w c 4 l ",
"2 3 $ o.2 $ 1 3 9 1 F W.o u o.2 1 1.4 4 3 Y d 3 > q 9 g a.1 ] y.8 8 9 1 1 B i - t u ..2 y < 8.@ 7.4 2 . 1 D m D c 3 9 > 3 : 2 , "
};
