/* XPM */
static char *_e689e126b99460ecd1f4f609dd10b39NLfdyGnMPYFN9ZQi[] = {
/* columns rows colors chars-per-pixel */
"64 64 242 2 ",
"   c #060100",
".  c #0C0100",
"X  c #0D0906",
"o  c #130100",
"O  c #1A0100",
"+  c #150802",
"@  c #1B0800",
"#  c #2B0D03",
"$  c #250800",
"%  c #320C02",
"&  c #3B0D01",
"*  c #251301",
"=  c #2C1304",
"-  c #2B1902",
";  c #2A170B",
":  c #331301",
">  c #3B1103",
",  c #32140B",
"<  c #381A07",
"1  c #2D1A1A",
"2  c #2E1612",
"3  c #331C14",
"4  c #321D1A",
"5  c #381A15",
"6  c #34221A",
"7  c #352316",
"8  c #342111",
"9  c #3E2C20",
"0  c #441B0C",
"q  c #4A1F0C",
"w  c #411B12",
"e  c #42220B",
"r  c #65341C",
"t  c #69351B",
"y  c #673617",
"u  c #622F1A",
"i  c #423325",
"p  c #5B3A38",
"a  c #4F3A2E",
"s  c #64372C",
"d  c #643633",
"f  c #643A33",
"g  c #6A3A34",
"h  c #653C3A",
"j  c #6A3A3B",
"k  c #673637",
"l  c #5A4239",
"z  c #63453A",
"x  c #774839",
"c  c #78513B",
"v  c #79462B",
"b  c #633C41",
"n  c #6B4D49",
"m  c #7C4E46",
"M  c #6F524C",
"N  c #6D5D4D",
"B  c #7C5544",
"V  c #74544B",
"C  c #7C554B",
"Z  c #745D4D",
"A  c #7B594B",
"S  c #765446",
"D  c #6B5C53",
"F  c #6C5B57",
"G  c #755B54",
"H  c #7A5B53",
"J  c #755755",
"K  c #714F50",
"L  c #72624F",
"P  c #6C635C",
"I  c #74645C",
"U  c #776354",
"Y  c #696461",
"T  c #7D7169",
"R  c #885A3D",
"E  c #824E49",
"W  c #825244",
"Q  c #8B5C45",
"!  c #84534B",
"~  c #885848",
"^  c #965E48",
"/  c #8A5651",
"(  c #8C6447",
")  c #92644C",
"_  c #976447",
"`  c #8C6151",
"'  c #896C5C",
"]  c #866659",
"[  c #936455",
"{  c #9A6852",
"}  c #95655A",
"|  c #9D655B",
" . c #936A5B",
".. c #9A6A5B",
"X. c #9A6654",
"o. c #887159",
"O. c #9E765B",
"+. c #AB6D53",
"@. c #AA6F5C",
"#. c #A46C57",
"$. c #A47356",
"%. c #AD7355",
"&. c #A5735C",
"*. c #AB745C",
"=. c #A47A5B",
"-. c #AC7A5B",
";. c #AC7956",
":. c #B17355",
">. c #B2755B",
",. c #B2795B",
"<. c #B06F53",
"1. c #8C6C63",
"2. c #866C64",
"3. c #976B63",
"4. c #8C7265",
"5. c #87746B",
"6. c #9D7563",
"7. c #937D64",
"8. c #9B7A6C",
"9. c #9A7966",
"0. c #A57663",
"q. c #AC7461",
"w. c #A47A65",
"e. c #AD7962",
"r. c #A47A6A",
"t. c #A8796A",
"y. c #B07563",
"u. c #B17B63",
"i. c #A4776D",
"p. c #BD855E",
"a. c #BE895D",
"s. c #938167",
"d. c #948169",
"f. c #928477",
"g. c #A88568",
"h. c #BC8563",
"j. c #BD8A63",
"k. c #BC8C6B",
"l. c #B58A69",
"z. c #AE8D7B",
"x. c #A98973",
"c. c #B48C74",
"v. c #BB8A74",
"b. c #B48D7C",
"n. c #B98A79",
"m. c #B68573",
"M. c #AC9179",
"N. c #B4937C",
"B. c #B89479",
"V. c #BD9068",
"C. c #BEA37E",
"Z. c #C18B5F",
"A. c #C2875F",
"S. c #C28665",
"D. c #C28A64",
"F. c #C38769",
"G. c #C38B6A",
"H. c #C98B6C",
"J. c #CC9E6E",
"K. c #C4946C",
"L. c #C38B77",
"P. c #C69C74",
"I. c #CC9E74",
"U. c #C39D7C",
"Y. c #CB9E7B",
"T. c #C69172",
"R. c #D19E75",
"E. c #D19E7B",
"W. c #D19E6F",
"Q. c #C7A176",
"!. c #CDA274",
"~. c #C5A37C",
"^. c #CCA37B",
"/. c #CBA87D",
"(. c #D2A174",
"). c #D2A27A",
"_. c #D3A87A",
"`. c #D0A16F",
"'. c #A88E81",
"]. c #A99485",
"[. c #B49283",
"{. c #B89B85",
"}. c #B38881",
"|. c #BEA183",
" X c #BEA48A",
".X c #B7A081",
"XX c #B8A99A",
"oX c #CA9E84",
"OX c #C49B82",
"+X c #C3A484",
"@X c #CBA383",
"#X c #C4A48A",
"$X c #C3A98B",
"%X c #C8A787",
"&X c #D2A583",
"*X c #D8AA8A",
"=X c #C5AB94",
"-X c #D7B59B",
";X c #EABD9B",
":X c #E5B999",
">X c #CAB8A7",
",X c #D8BCA7",
"<X c #D4BDB0",
"1X c #E7BDA2",
"2X c #EBC39B",
"3X c #DAC0A7",
"4X c #CEC2B7",
"5X c #D7C5B6",
"6X c #EBC2A3",
"7X c #ECCDB5",
"8X c #E3CCBB",
"9X c #E9CCB8",
"0X c #E7D1BD",
"qX c #D9CDC7",
"wX c #D9D2CB",
"eX c #D9D4D1",
"rX c #D3CED1",
"tX c #E5D3C8",
"yX c #E2CDC3",
"uX c #EEE7DA",
"iX c #FAEEE7",
"pX c #FEF5E5",
"aX c #F6F2EE",
"sX c #FEF5EC",
"dX c #FFF9ED",
"fX c #FFF8E6",
"gX c #FDF5F2",
"hX c #FFFCF4",
"jX c #F6FDFC",
"kX c #FFFFFB",
"lX c #FEFDFA",
"zX c #FBFFFF",
"xX c #FAFDFD",
"cX c #FFFFFD",
"vX c #FFFDFE",
"bX c #FCFFFF",
"nX c #FEFFFF",
"mX c white",
"MX c #FFFEFF",
"NX c #FDFDFD",
"BX c #FEFEFC",
"VX c #F9F5F4",
/* pixels */
"vXvXvXlXlXvXvXvXvXvXvXlXlXlXvXvXxXvXlXlXvXvXvXvXvXvXxXxXlXlXvXvXvXlXvXvXxXvXlXvXvXvXvXvXlXhXvXvXlXNXvXxXxXxXlXlXvXvXvXvXvXlXlXvX",
"vXvXvXlXlXvXvXvXvXVXvXlXlXvXvXvXxXxXlXvXvXvXvXvXVXjXxXxXlXlXvXvXvXlXlXvXvXlXlXaXvXvXxXvXlXlXlXvXlXvXxXzXvXvXaXhXvXvXvXvXVXlXvXlX",
"vXvXvXlXlXlXlXlXgX  hXlXlXvXvXvXxXvXvXvXvXvXlXlX  lXvXvXlXlXvXvXvXvXVXlXvXlXhX. gXvXvXvXlXlXvXvXvXvXvXvXvXhX  sXlXvXvXvXvXvXjXvX",
"vXvXjXvXlXlXlXhX+ wX. hXlXvXvXvXxXjXvXvXvXvXhX. qX. lXlXlXlXvXxXvXvXvXlXlXhX+ 4X. hXvXxXvXvXjXvXvXvXvXvXlX  4X. hXlXxXxXvXxXvXvX",
"vXvXvXvXlXlXhX. <XtXtXsXhXlXvXvXxXvXvXvXvXlX. 4X5XtXf.lXlXlXvXvXvXvXlXlXhXf.>X5XtX. lXjXxXxXvXvXvXlXjXlXhX4X<XtX. hXvXvXxXvXvXvX",
"xXvXvXvXlXhXuXi ,X,X8X5XhXlXvXvXxXxXvXvXvXaX7 ,X,X8X5.hXlXvXxXvXxXvXvXlXdX5.,X-X8X9 hXvXvXxXxXvXvXvXlXgX5X5X=X8X7 uXlXjXvXvXvXxX",
"vXvXvXvXhXdXXX>X,Xc.9Xo sXhXvXvXvXvXxXvXlXdX3X,Xc.7XU iXlXNXvXvXvXlXlXhXdXZ -Xg.7X8XgXlXvXxXvXvXvXvXlXhXo ,Xg.7X0XXXgXvXvXvXvXvX",
"vXxXvXlXlXdXa 3X=.c.N.8X+ hXlXlXvXvXvXvXhXo ,X=.l.c.9X@ hXlXvXvXvXvXlXdXo ,Xg.l.l.7Xo lXvXvXlXvXvXlXhX@ ,XO.c.c.0Xl hXlXvXvXlXvX",
"vXvXNXlXhXo 3X( k.k.@X7X8XwXlXlXvXvXvXlX. ,X( k.k.Y.=X0Xa lXjXvXvXvXlXa ,XB.l.j./.x.0X. lXvXjXvXvXNXtX>X1Xk.k.U.M.8X. hXvXvXvXlX",
"vXjXvXlXT XX#X( G.j.Y.B.0Xi hXlXlXvXjXhXXX6X$.j.D.).U.9X].sXlXlXvXlXhXf.,XO.k.D.I.@X7X>XgXlXvXlXjXlXi ,X{ k.j.^.@X,X>XT vXNXlXlX",
"lXvXvXlXD <XO.R j.D.).U.{.8 hXlXlXvXvXsX5Xw.$.G.a.(.Y.#X{.dXhXlXlXVXhX'.r._ D.Z.(.^.OXtXsXvXvXvXvXNX2 8.{ j.j.I.^.+X0XD NXvXvXlX",
"vXlXlXgXI [.) _ D.a.).~.|.; hXlXlXvXlXsX[.( ;.S.Z.(.I.B.f.sXlXlXlXlXdX4.( %.D.Z.J.!.U.$XdXlXNXvXvXhX=  ._ G.D.(./.~.=XD hXvXhXlX",
"vXvXlXhXI i.^ ^ h.a.)./.+X- hXlXlXvXlXsXg.{ %.S.D.R.^.%Xo.dXhXhXlXhXhXU { +.S.G.(.!.U.N.dXlXvXvXvXhX# ` *.F.D.I.!.U.{.N hXlXlXlX",
"vXlXlXhXG b.q.^ G.D.I.Q.#X* hXlXvXlXlXsX[.*.%.D.a._.!.U.7.dXhXlXlXhXhX' e.>.S.p.(.!.^.%XpXlXvXvXvXlX# [ -.h.G.R.I.*X{.N hXvXlXlX",
"vXvXlXhXG }.q.^ h.j.!.Q.+X- hXlXvXlXNXdXb.*.,.D.j.!.^.@X7.pXhXNXlXlXsX] *.@.F.G.I.!.^.+XdXNXvXvXvXhX# t.*.G.j.R.I.^. XN hXvXvXlX",
"vX    . O b.q.>.G.j.^.^.+X: o . . . . O n.-.,.S.k.!.^.~.7.O o . . . O  .q.>.F.h.(.!.!.@XO o . . . o , r.$.L.j.).^.^.#Xo . .   lX",
"vX. n z > n.@.>.e.*X^.^.+X: c S A A S c v.-.+.,.*X^.Q.Q.w.B A H Z A C ..@.>.>.*XI._.I.@Xc A S S V V : 6.&.u.*X@X^.^.+X< Z G . hX",
"lX. 4.C 0 n.*.*.&.:X@XY.#X: B ......~ ~ v.*.*.#.:X&X^.Q.&.`  . .] ..} X.y.>.{ :X&X/.^.Y.R ......[ ! % r.0.@.:X@XY.^.@X< 3.2.+ lX",
"hX. 1.3.0 m.y.*.t R 6XY.#X: ..} } 3.} [ L.*.e.y R 2XQ.&X0.m ! ..3.m W X.*.*.t R ;X!./.&X[ } } ....} > r.0.r R :X_.P.@Xe  .1.o NX",
"vX. V C 0 n.*.*.t R 6X@X+X% B ! / g ! W v.*.*.t R 2X/.P.0.W m ! ! ! ~ | q.-.t R 2X!.^.Y.W ! ! ! ! ! % w.&.u Q ;X!.^.@X< A J . vX",
"vX. l h > n.q.*.$.y Y.Y.+X: f g d k d g L.*.$.-.y ^.^.^.&.g k k k g g [ @.*.-.y I.Q./.oXs g k k k d & r.&.&.y Y.I.^.@X: z p o VX",
"lXo p p > n.@.>.h.-.&X^.+X: f p h p h f v.*.,.h.-.I.^.^.0.s d h k f f | *.>.h.;.^.^.^.@Xs s k j k g % w.$.k.-.^.).Y.+X: p p . vX",
"vX  F V w n.q.%.k.G.P.Y.%X: M J K K n C n.;.>.F.k.).!.Q.6.S n M M n V [ y.+.G.G.I._.Y.U.B V n K J K % w.-.j.V.P.).^.#X< M F   lX",
"vX. 1 3 $ n.*.%.G.j.).Q.+X: 3 1 1 1 4 , n.-.+.H.D.).(.Q.6., 4 4 1 3 5 } @.>.S.D.(.I.^.@X< 3 4 4 1 5 % 0.%.D.j.).I.@X#X$ 2 1 X lX",
"vX  . o $ m.y.%.D.j.(.Q.+X- o . . . o O c.-.,.F.D.).I.^.7.o o + + o O ' q.<.H.D.R.(.Y.@XO o . . . o , w.%.G.j.R.).@X#Xo o .   vX",
"jXvXNXgXH b.*.%.D.D.).^.+X* hXvXNXvXNXsXB.*.%.F.D.(.!.^.7.pXhXhXhXhXdX] q.:.F.D.R.(.^.%XpXhXlXvXvXNX# 0.%.D.D.R.!.~.#XN hXlXvXxX",
"xXjXvXgXZ c.-.:.D.D.R.^.+X- hXvXvXvXlXdXB.$.%.F.j.(.!.~.d.pXhXlXlXhXdX4.*.:.G.j.(.J.^.+XfXhXvXvXvXhX= w.%.S.D.R.)./. XN dXlXvXvX",
"jXxXvXhXZ c.$.%.D.h.R.~.~.* hXvXxXvXhXdXb.-.;.G.j._.J.~.7.fXhXhXhXhXdX' &.+.G.j.!.!.Q.#XpXlXvXvXvXlX$ r.*.S.S.R.!.~.$XN hXlXvXxX",
"xXxXvXhXZ x.-.%.S.G.E.@X+X- dXxXvXvXlXsXn.*.%.h.k.!._.~.7.pXlXlXvXlXdX' q.,.S.D.!.Q./.+XpXlXvXvXvXhX, w.-.S.H.R.!./..XL hXlXvXvX",
"xXvXvXlXZ c.=.%.D.h.).^.C.- hXlXvXvXlXdXn.*.,.G.j.(.Q.~.d.pXhXlXvXNXdX1.*.:.S.j.(.!./.+XfXlXvXvXvXhX= 6.&.G.h.I.Q.Q.$XN hXlXvXvX",
"vXvXvXhXZ c.$.%.G.j.&X^.~.- dXlXvXvXlXpXB.%.%.D.D.I._.~.7.pXhXlXvXlXsX' *.,.h.G.W.!.^.+XpXhXvXvXvXgX, w.-.T.j.).Q.B.$XL hXlXvXvX",
"vXvXvXhXZ c.=.;.j.G.Y.^.%X- hXlXvXvXlXdXn.;.%.D.a._.J.~.d.pXhXlXNXlXhX' q.+.D.Z.`.!.!.+XpXlXvXvXvXgX= r.$.j.G.I.^.~.$XN hXlXvXvX",
"vXvXlXhXZ c.*.%.D.D.!.~.+X- hXlXvXlXhXfXn.*.%.D.a.(.(.~.7.pXhXlXlXhXsX' *.:.D.Z.`.!.!.@XpXlXvXvXvXhX= w.&.k.D.R.!.~.+XN hXlXvXvX",
"vXvXlXhXZ b.*.%.D.D.!.~.+X- hXlXvXlXlXsXN.*.%.D.D.(.(.%X7.dXhXlXlXhXsX' *.:.D.Z.`.!.!.+XpXlXvXvXvXhX= r.&.G.S.R.!.~.+XZ hXlXvXvX",
"vXvXlXhXZ n.*.%.D.D.^.~.+X- hXvXvXvXlXsXN.*.%.D.D.R.^.@X7.dXhXlXlXlXdX' *.%.S.D.!.!.!.+XfXlXvXvXvXhX= w.&.G.D.R.!.~.#XN hXlXvXvX",
"vXvXlXhXZ c.;.:.D.D.^.^.+X- hXvXvXvXlXdXN.*.%.D.D.R.^.%X7.dXhXlXlXlXhX' &.%.S.D.!.!.Q.+XdXlXvXvXvXhX% 0.*.D.D.R.!.~. XN hXlXvXvX",
"vXvXlXhXZ c.;.:.D.j.).^.+X- hXvXxXvXlXdXb.*.%.D.Z.!.!.~.s.fXhXvXvXvXhX2.&.%.S.D.!.^.^.#XdXlXvXvXvXNX# w.%.D.D.R.!.~. XN hXlXvXvX",
"vXvXlXhXZ c.;.:.D.D.).^.+X- hXxXxXvXlXdXb.*.%.D.Z.(.!.~.7.pXlXvXvXvXhX' &.%.S.D.Y.^.^.#XdXlXlXvXvXNX% 0.%.D.j.R.!.~. XN hXlXvXvX",
"vXvXlXhXZ b.;.:.D.D.(.Q.+X- hXvXvXvXlXgXb.q.%.D.j.!.!.@X7.pXhXlXlXNXsX' *.%.D.D.!.!.Q.+XdXhXlXlXvXNX% 0.%.D.j.R.!.~. XN hXlXvXvX",
"vXvXlXhXZ b.*.:.D.j.(.Q.+X- hXvXvXvXlXsXb.*.%.D.j.!.!.~.7.pXhXlXlXNXsX' *.<.S.D.(.!.Q.+XfXhXhXlXvXhX= 0.%.D.D.R.!.~. XN hXlXvXvX",
"vXlXlXhXZ z.q.:.j.j.!.Q.+X- hXvXvXvXlXdXn.-.%.Z.Z.J.!.~.s.pXhXlXvXlXhX' *.%.D.D.R.I./.+XdXlXlXlXlXgX= 0.%.D.D.I.!.^. XN hXlXvXvX",
"lXVXlXhXG N.*.,.G.j.!.^.+X* hXNXvXvXlXsXb.*.:.A.a.(.!.~.s.fXlXvXvXlXgX4.*.%.S.S.R.).Q.#XdXhXlXlXlXhX, O.-.D.h.).).^.$XL dXhXlXvX",
"hXeXwXqXz c.@.%.h.G.I.Q.+X- qXwXeXrXwXyXn.-.:.S.D.I.!.+Xd.qXeXrXeXqXtX] $.,.H.S.I.)./.|.yXeXrXeXwXtX# w.%.D.T.I.I.^.#Xz tXwXeXlX",
"lX  . o O b.@.,.k.V.^.~.C.- o o o . o O OX*.%.D.j.).^.~.7.o o o o o O ..*.%.h.D.).!.!.%XO o . o o o : w.$.G.h.Y.).Q.+XO . .   lX",
"lX. 5.G 0 m.-.%.G.l.^.^.%X: A 1...[ C ~ m.>.;.G.k.^.!./.O.B  . . .....X.>.%.F.G.!._._.I.~ C 3.3.1.V % 0.$.T.k.Y.I.Q.#X< 4.5.. lX",
"hXo 5.3.0 v.>.%.-.;XY.@X|.:  ...X.#...X.L.*.-.$.:X/.!.^.=.c R { X...| ^ >.%.;.:X!.Q.!.).) ..3.} 3.} > w.$.*.;X^.^.Q.+Xe 1.2.o NX",
"vXo H C q l.%.,.v _ :X@X+X: ~ W ~ ~ W W L.y.*.v ) :X^.@XO.W W ~ Q W ~ | q.*.v ) ;XQ.^.&XW ! x / / / % t.*.v _ :X^.Q.@Xe A H o NX",
"NXo K C 0 v.;.%.t R 6X@X+X: B W E ! ! W L.q.q.r Q 6X^.@Xw.m W W W W ! | q.q.s ~ ;X/.^.Y.W ! g E E E & 0.&.t R ;X^.~.@X< A J o NX",
"vXo p h > m.*.*.y Q 1X@X#X: f k k j k k L.q.q.r Q 1X&XoX6.f d j j k k | q.y.r Q 6XP.@XoXg d j j k k & 0.0.r Q 1X@X@X+X: f p o vX",
"NXo p h > n.$.*.*.y &XOX#X: z p b p h f L.*.-.*.y @X@XOXr.s f f k j d ..q.*.*.y I.^.&XoXg h d h k k % r.e.@.t Y.^.%X#X: z p . vX",
"vX  G V 0 n.*.;.F.G.&X@X+X: V G G J H S v.>.%.G.k.^.Q.~.6.A H l J J H [ @.%.G.j.!.).Y.@XB G G J H V : w.$.L.G.E./.~.+Xe Z D . vX",
"vX  6 5 % m.-.%.H.h.Y.Y.+X- 7 4 4 6 5 5 n.;.:.S.D.!.^.^.9.< 5 ; 6 7 5 [ *.+.D.j.(.Q.I.@X8 3 6 4 7 3 # w.&.H.p.).P.~.+X$ ; 6   lX",
"xXY Y I < v.;.:.S.S.R.@X+X- I P Y Y F U n.*.:.D.a.(.!.~.O.L I P P I U ] e.:.p.D.J.!./.+XU P P Y P I = 6.*.S.H.R.)./.+X8 I Y Y xX",
"xXvXlXhXH c.*.+.D.D.(.I.%X- dXlXvXvXlXpXN.*.%.S.D.(.I.^.d.pXhXhXlXhXhX' $.>.F.p.(._.^.|.fXhXhXvXlXhX= r.*.F.S.R.Q.~.|.N hXlXvXxX",
"xXxXvXhXN b.*._ D.D.(.Q.|.- hXvXvXxXlXsX[.*.%.D.D.(.!.%X7.pXlXvXvXvXsX' @.<.S.G.(.I.^.+XfXlXvXvXvXNX# 6.q.F.A.(.!.~.=XN hXvXxXvX",
"vXxXvXhXG z.) _ G.j.I./.+X- hXjXvXvXvXdXb.0.>.S.D.(.^.~.d.pXNXvXvXvXhX' q.:.S.D.(.!.@X#XpXlXvXvXvXgX, t.*.F.D.(.!.~. XD NXvXvXvX",
"vXvXlXlXZ z.) _ G.j.).Q.+X- hXvXvXvXlXsX[.&.,.D.D.(.J.^.7.pXhXvXlXlXdX' @.>.S.A.R.!.^.+XfXhXvXvXvXhX, t.*.F.S.W.!.^. XN lXNXvXvX",
"vXlXlXhXG z.Q Q h.%.E.&X+X- hXlXvXlXhXdXN.) +.%.;.).!.~.o.fXhXlXlXhXdX' X.>.%.D.R.^.^.c.pXhXlXlXlXhX# ` e.:.p.(.!.P.M.U sXlXlXlX",
"lXNXlXhXM b.) ^ L.;.Y.OXN.* dXlXlXlXhXiX[.Q q.>.,.E.).B.o.pXhXhXlXhXfX' ^ #.%.%.).Y.k.N.pXhXVXlXlXhX= ` ) ;.,.).Q.U.M.N hXhXlXlX",
"lXlXlXhXG '.` [ n.&.*X%XM.* hXlXlXlXlXsX[.` 0.q.&.@XoXB.] dXhXlXlXhXdX4.~ ..0.&.oX@Xc.M.dXlXlXlXlXhX* ] ` 0.&.@X@XB.x.N hXlXlXlX",
"lXlXlXhXD '.] ] 8.r.6.z.].; hXNXvXvXNXhX].] ] i.8.9.z.].5.sXNXvXvXlXhXT ] ] 8.9.9.N.z.].gXlXlXlXvXlX; 2.] 8.8.8.z.].].D lXlXvXvX",
"vXlXhXlXP . o o O O O o .   NXvXvXvXvXVX. o O o O o O . . gXvXvXvXvXlX. o o o o o o o o hXvXvXxXxXlX. . o o o . o . . D lXvXxXxX",
"xXvXvXvXVXaXaXaXgXiXsXsXiXVXvXvXvXvXxXvXaXsXaXgXgXaXaXsXgXvXvXvXvXvXvXVXaXgXhXaXsXpXsXiXvXvXvXvXvXvXaXgXaXgXgXgXsXiXsXgXlXlXxXzX",
"zXxXvXvXvXlXvXvXvXvXvXNXlXvXvXvXvXvXxXxXlXlXvXvXvXvXhXlXvXNXvXvXvXvXlXvXvXlXvXlXlXhXhXlXvXvXvXvXxXvXNXlXvXvXvXvXlXlXhXhXvXvXxXzX"
};
