/* XPM */
static char *_924684cc4544712fae47b4c5b4fec8dmkSSfPwaja1t26OG[] = {
/* columns rows colors chars-per-pixel */
"64 64 235 2 ",
"   c #060301",
".  c #0C0300",
"X  c #0C0803",
"o  c #0D0B0B",
"O  c #130300",
"+  c #1B0200",
"@  c #140A00",
"#  c #1B0B01",
"$  c #1A0D0B",
"%  c #17120C",
"&  c #1B130D",
"*  c #1A1107",
"=  c #1F1B12",
"-  c #210300",
";  c #2B0400",
":  c #260B00",
">  c #2F0C00",
",  c #370700",
"<  c #2B1402",
"1  c #22130A",
"2  c #2A150B",
"3  c #2A1809",
"4  c #301403",
"5  c #331C0A",
"6  c #3D1805",
"7  c #251613",
"8  c #2B1B14",
"9  c #2B1D19",
"0  c #241813",
"q  c #311C17",
"w  c #3B240D",
"e  c #33211B",
"r  c #3C2A1C",
"t  c #39251A",
"y  c #2A231D",
"u  c #2A2824",
"i  c #332C24",
"p  c #3B2B24",
"a  c #332E29",
"s  c #3B2A26",
"d  c #37312B",
"f  c #3B3331",
"g  c #323C38",
"h  c #2E3734",
"j  c #400900",
"k  c #441F02",
"l  c #472409",
"z  c #432E1A",
"x  c #492D1C",
"c  c #4C2814",
"v  c #4B331C",
"b  c #51391C",
"n  c #543717",
"m  c #602E0D",
"M  c #653715",
"N  c #422B24",
"B  c #4A2E22",
"V  c #432D29",
"C  c #4B342C",
"Z  c #4C392B",
"A  c #473425",
"S  c #523C2B",
"D  c #573A26",
"F  c #4D3E3A",
"G  c #463A35",
"H  c #513D35",
"J  c #533F3B",
"K  c #583F38",
"L  c #3E413F",
"P  c #4C433D",
"I  c #4B4233",
"U  c #524232",
"Y  c #54433D",
"T  c #5A463D",
"R  c #5F452A",
"E  c #61452D",
"W  c #6A4B2F",
"Q  c #764826",
"!  c #634733",
"~  c #7A4D33",
"^  c #72533D",
"/  c #7A5436",
"(  c #6A543D",
")  c #494743",
"_  c #554A42",
"`  c #584942",
"'  c #5B544B",
"]  c #5C5552",
"[  c #6A5649",
"{  c #725642",
"}  c #745C4C",
"|  c #7B5E4B",
" . c #775A46",
".. c #675D52",
"X. c #755D50",
"o. c #7B624D",
"O. c #7B6248",
"+. c #6B625B",
"@. c #6B6356",
"#. c #736154",
"$. c #7E6454",
"%. c #75675B",
"&. c #6D6965",
"*. c #636864",
"=. c #746B64",
"-. c #7F7365",
";. c #7B756B",
":. c #6C7371",
">. c #787875",
",. c #8B5D3C",
"<. c #865938",
"1. c #8E5B33",
"2. c #9C6A3E",
"3. c #825D43",
"4. c #855F48",
"5. c #945F40",
"6. c #81624D",
"7. c #896344",
"8. c #936A44",
"9. c #946845",
"0. c #806253",
"q. c #997253",
"w. c #947155",
"e. c #867059",
"r. c #A67D5B",
"t. c #A47049",
"y. c #82756B",
"u. c #857A6A",
"i. c #817773",
"p. c #887E75",
"a. c #A67C62",
"s. c #BC8455",
"d. c #BD855B",
"f. c #BD895C",
"g. c #B58358",
"h. c #BA8249",
"j. c #938375",
"k. c #978C7F",
"l. c #9D836A",
"z. c #AB8565",
"x. c #A98669",
"c. c #BD8663",
"v. c #B58C65",
"b. c #BD8A63",
"n. c #BC8B6A",
"m. c #B38968",
"M. c #BC956B",
"N. c #A98C73",
"B. c #A78C79",
"V. c #B28C73",
"C. c #AB9178",
"Z. c #C5824E",
"A. c #C6894D",
"S. c #C38455",
"D. c #CA8553",
"F. c #C68856",
"G. c #C3855A",
"H. c #C9865A",
"J. c #C5895B",
"K. c #C98B5B",
"L. c #CF945D",
"P. c #C28C62",
"I. c #C98E62",
"U. c #C49362",
"Y. c #CB9263",
"T. c #CB9B6D",
"R. c #C79769",
"E. c #D39C6D",
"W. c #D69969",
"Q. c #CB9B74",
"!. c #C79B7A",
"~. c #D29D75",
"^. c #CFA06A",
"/. c #D0A16B",
"(. c #DEA570",
"). c #CBA276",
"_. c #888683",
"`. c #988F88",
"'. c #938883",
"]. c #8F918E",
"[. c #9A948C",
"{. c #92938D",
"}. c #8D8E90",
"|. c #9B9894",
" X c #A09790",
".X c #A49182",
"XX c #BFA38D",
"oX c #ABA59D",
"OX c #BBA99A",
"+X c #9EA3A6",
"@X c #ACA9A3",
"#X c #A9A8A5",
"$X c #BABAB5",
"%X c #B6AEA8",
"&X c #C99C83",
"*X c #CAA284",
"=X c #CEAC93",
"-X c #C1B4AD",
";X c #C5BBB6",
":X c #C2C1BA",
">X c #C8C1B9",
",X c #D4C7BA",
"<X c #E0C9B7",
"1X c #CBC6C3",
"2X c #CCCAC4",
"3X c #C6CFCE",
"4X c #CCCFCB",
"5X c #C6C5C5",
"6X c #D2CBC6",
"7X c #D3CECD",
"8X c #DBCAC3",
"9X c #CCD3CE",
"0X c #CAD4CF",
"qX c #D3D3CE",
"wX c #DAD3CC",
"eX c #DDD5C5",
"rX c #C9CFD2",
"tX c #C6D3D3",
"yX c #CDD6D5",
"uX c #CDD8D5",
"iX c #CCD6D8",
"pX c #CDD9DA",
"aX c #D2D4D4",
"sX c #D9D5D2",
"dX c #D4D9D5",
"fX c #D8D9D5",
"gX c #D3D5DA",
"hX c #D0D9D9",
"jX c #D2DADA",
"kX c #D8D9DA",
"lX c #D3CED2",
"zX c #E1D5C9",
"xX c #FFE4CF",
"cX c #F4E8DB",
"vX c #EBE7E2",
/* pixels */
"yXyXyXyXyXyXyXyXyXyXyXyXyXyXyXyXyXyXyXyXyXyXyXyXyXyXyXyXyXyXyXyXyXyXyXyXyXyXaXyXyXyXyXyXyXyXyXyXyXyXyXyXyXyXyXyXyXyXyXyXyXyXyXyX",
"yXyXyXyXyXyXyXyXyXyXyXyXyXyXyXyXyXyXyXyXyXyXyXyXyXyXyXyXyXyXyXyXyXyXyXyXyXyXaXaXyXyXyXyXyXyXyXyXyXyXyXyXyXyXyXyXyXyXyXyXyXyXyXyX",
"yXyXyXyXyXyXyXyXyXyXyXyXyXyXyXyXyXyXyXyXyXyXyXyXyXyXyXyXyXyXyXyXyXyXyXyXyXyXyXyXyXyXyXyXyXyXyXyXyXyXyXyXyXyXyXyXyXyXyXyXyXyXyXyX",
"yXyXyXyXyXyXyXyXyXyXyXyXyXyXyXyXyXyXyXyXyXyXyXyXyXyXyXyXyXyXyXyXyXyXyXyXyXyXyXyXyXyXyXyXyXyXyXyXyXyXyXyXyXyXyXyXyXyXyXyXyXyXyXyX",
"yXyXyXyXyXyXyXyXyXyXyXyXyXyXyXyXyXyXyXyXyXyXyXyXyXyXyXyXyXyXyXyXyXiXiXiXiXiXyXyXyXyXyXyXyXyXyXyXyXyXyXyXyXyXyXyXyXyXyXyXyXyXyXyX",
"yXyXyXyXyXyXyXyXyXyXyXyXyXyXyXyXyXyXyXyXyXyXyXyXyXyXyXyXyXyXyXyXyXyXpXyXyXyXyXyXyXyXyXyXyXyXyXyXyXyXyXyXyXyXyXyXyXyXyXyXyXyXyXyX",
"yXyXyXyXyXyXyXyXyXyXyXyXyXyXyXyXyXyXyXyXyXyXyXyXyXyXyXyXyXyXyXyXyXyXyXyXyXyXyXyXyXyXyXyXaXyXyXyXyXyXyXyXyXyXyXyXyXyXyXyXyXyXyXyX",
"yXyXyXyXyXyXyXyXyXyXyXyXyXyXyXyXyXyXyXyXyXyXyXyXyXyXyXyXyXyXyXyXyXyXyXyXyXyXyXyXyXyXyXyXaXaXyXyXyXyXyXyXyXyXyXyXyXyXyXyXyXyXyXyX",
"yXyXyXyXyXyXyXyXyXyXyXyXyXyXyXyXyXyXyXyXyXyXyXyXyXyXyXyXyXyXyXyXyXaXyXyXhXyX9XaXyXyXuXuXyXyXyXyXyXyXyXyXyXyXyXyXyXyXyXyXyXyXyXyX",
"yXyXyXyXyXyXyXyXyXyXyXyXyXyXyXyXyXyXyXyXyXyXyXyXyXyXyXyXyXyXyXyXyXyXyXyXyXyXaXyXyXhXyXyX3XhXtXhXyXyXyXuXyXyXyXyXyXyXyXyXyXyXyXyX",
"yXyXyXyXyXyXyXyXyXyXyXyXyXyXyXyXyXyXyXyXyXyXyXyXyXyXyXyXyXyXyXyXtXyXhXhXtXuXyXuXuXyXpXuXiXiXuXuXuXyXyXyXyXyXyXyXyXyXyXyXyXyXyXyX",
"yXyXyXyXyXyXyXyXyXyXyXyXyXyXyXyXyXyXyXyXyXyXyXyXyXyXyXyXyXyXyXyXiXtXtXyXyXyXuXyXpXhXyXyXhXtXyXpXuXyXyXyXyXuXuXyXyXyXyXyXyXyXyXyX",
"yXyXyXyXyXyXyXyXyXyXyXyXyXyXyXyXyXyXyXyXyXyXyXyXyXyXyXyXyXyXyXyXuXyXhXuXyXyXyXaXyXyXaXaXaXfXaXaXyXyXyXyXyXyXyXyXyXyXyXyXyXyXyXyX",
"yXyXyXyXyXyXyXyXyXyXyXyXyXyXyXyXyXyXyXyXyXyXyXyXyXyXyXyXyXyXyXyXyXtXyXyXyXyXyXaX9XfXsXqX2X    #XaXyXyXyXuXyXyXhXyXyXyXyXyXyXyXyX",
"yXyXyXyXyXyXyXyXyXyXyXyXyXyXyXyXyXyXyXyXyXyXyXyXyXyXyXyXyXyXyXyXyXyXyXyXaXaX_.a a i u i d ;.@ @XaXhXyXtXuXyXyXuXyXyXyXyXyXyXyXyX",
"yXyXyXyXyXyXyXyXyXyXyXyXyXyXyXyXyXyXyXyXyXyXyXyXyXyXyXyXyXyXyXyXyXyXaXaX#X|.' & $ @ O # 5 B.3 y.:XyXhXuXpXhXyXyXyXyXyXyXyXyXyXyX",
"yXyXyXyXyXyXyXyXyXyXaXyXyXyXyXyXyXyXyXuXuXuXiXuXuXyXyXyXyXyXyXyXyXyXsX#XP 1 q H i e < k 8.M.W < [.9XyXiXiXyXaXsXaXyXpXpXpXyXyXyX",
"yXyXyXyXyXuXyXyXyXyXyXyXyXyXyXyXyXyXyXyXyXuXuXuXyXyXyXyXyXyXyXyXyXdX5X. p H C N t # 3.8.T.R.!.l k.2X0XuXiXuXyXaXaXyXpXiXpXyXyXyX",
"aXyXyXyXyXyXuXyXyXyXyXyXyXyXyXyXyXyXyXyXyXyXyXyXyXyXyXyXyXyXyXyXgXyX  _ Y 8 2 t + | !.~.G.J.b.!.z I qXaXuXuXkXaXyXyXyXyXyXyXyXyX",
"yXyXyXyXyXyXyXyXyXyXyXyXyXyXyXyXyXyXyXqXqXqXaXaXyXyXyXyXyXyXyXyXtXyXX   . 7 V p - &Xc.d.J.G.f.n.=Xj.. sXyXhX0X9XyXyXyXyXyXyXyXyX",
"yXyXyXyXyXyXyXyXyXyXyXuXyXyXyXyXyXyXyXyXaXaXaXaXyXyXyXyXyXyXyXuXpXiX$X;XP 9 7 + ~ b.P.S.S.d.1.Q a.XXOX= 9XhXuXyXyXyXyXyXpXyXyXyX",
"uXyXyXyXyXyXaXyXyXyXuXuXuXuXyXyXyXyXyXyXyXaXaXyXyXyXyXyXyXyXyXyXtXiXqX@XP 9 7 + 9.f.G.G.J.d.9.Q r.=X<X. qX9X0XhXuXyXyXyXpXpXyXyX",
"uXuXyXyXaXaXaXaXyXyXuXuXyXyXyXyXyXyXyXyXyXyXyXyXyXyXyXyXyXyXyXyXyXdX7X. 9 s $ + n.d.c.P.c.f.P.d.n.*XxXO qXyX0XuXuXyXyXyXpXpXyXyX",
"uXuXyXyXaXaXaXaXyXyXyXyXyXyXyXyXaXyXyXyXyXyXyXyXaXaXyXyXyXyXyXyXaX7X. Y K C 2 + m.P., j c.c.f.f.v.V.B.cX  *.yXyXyXyXyXyXpXpXyXyX",
"uXyXyXyXaXaXaXyXyXuXyXuXyX9XdXaXaXdXaXyXyXyXpXyXaXaXaXyXuXyXiXyXaX  F K B 4 x 7.c.c.5.~ ; 4.z.m.m.V.B.cXvX>.g yXyXyXyXyXpXpXuXuX",
"yXyXyXyXyXyXyXyXyXuXyXaXsXqX>.=.=.+.&.&.5XdXaXsXqXqXqXqXaXyXuXhXaX  Z Z 6 l <.r.c.P.,.<.c c ! R O.l.OX-.vX>.g uXyXyXaXyXyXiXuXuX",
"aXaXaXyXyXyXuXuXuXuXyXsXqXi.V 7 8 e 8 1 =.y.-.-.u.y.u.;.;.sXaXaXsX..3 4 l <.g.R.G.s.t.9.| + [ ..U $.,X[ vX>.h uXpXpXaXyXyXuXuXuX",
"aXaXaXyXyXuXuXuXyXyX9XsX'.7 F J H C Z S v v D n n b b v t j.'.'.k.j.w l / d.I.S.S.G.b.x.} O 1XsX=.@.p.'.|.:.:.3XyXyXaXyXyXuXuXuX",
"aXaXyXyXuXuXyXyXyXaXsX6XO Y J H N t x 3.z.b.R.^./.T.).z.3.- - + - - <.1.g.Y.S.H.H.G.c.z.} . 1XfXsX{.      *.yXyXyXyXaXyXyXyXuXuX",
"aXyXyXyXuXuXyXyXaXqX] . Y Y V s e O + m.Q.(.L.A.A.h.J.P.Q.!.!.&X&X*X~.E.I.S.S.S.S.G.c.a.+ wXsXyXyX0XaXdXaX9XuXuXyXyXaXyXyXyXyXyX",
"yXyXuXuXuXyXyXaXsXf s ` Y e N 9 a ,X+ x.Q.Y.Z.D.Z.S.J.G.d.d.J.d.f.d.S.K.G.s.F.Z.D.G.d.r.# qXaXpXiXiXjXaXyXyXuXyXyXyXaXyXyXyXyXyX",
"uXuXuXuXuXyXyXaXlXf s J Y p $ G sX>XO N.Q.W.D.D.D.D.G.S.J.S.S.F.G.S.D.Z.G.J.D.D.S.G.f.r.@ aXaXtXiXiXyXyXaXyXyXuXyXyXyXyXyXyXyXyX",
"yXuXyXyXyXyXyXaXqXf s J Y s $ F qX1XO N.Q.Y.S.D.D.D.G.d.G.J.S.G.S.S.D.D.S.S.K.S.F.s.f.q.O sXaXaXyXyXyXyXyXyXyXyXyXyXyXyXyXyXyXyX",
"yXyXyXyXyXyXyXyXqXf d F O s $ G sX1X. { z.b.E.S.Z.Z.K.G.G.G.G.G.S.S.K.Z.S.S.S.G.s.P.Q.z.# 7XkXgXyXyXyXyXyXyXyXyXyXyXyXyXyXyXyXyX",
"yXyXyXyXpXpXyXyXaXqX] . . a o ) aXqXwX# { ,.f.S.D.D.S.I.E.d.F.S.K.S.S.W.K.G.S.H.J.c.7.( @ sXrXyXyXyXyXyXyXyXyXyXyXyXyXyXyXyXyXyX",
"yXyXyXyXpXpXyXyXaXaXsXqXsX  o L fX9XqXzX5 6 f.K.S.F.Y.2., P.f.G.G.S.s.E.I.S.H.H.G.c.> 3 wX9XjXyXyXyXyXyXyXyXyXyXyXyXyXyXyXyXyXyX",
"yXyXaXaXaXyXpXyXyXyXaXdXaX}._.+XyXaXsX,X< k d.S.P.b.8.M M 9.g.b.b.b.n.<.g.F.S.G.G.n.; 2 wX4XyXiXyXyXyXyXyXyXyXyXyXyXyXyXyXyXyXyX",
"yXyXaXyXyXyXpXyXtXjXtXyXgXyXjXtXpXaXwX} ^ ,.s.J.R.8.n c W 3.q.q.q.q.w.6 2.I.S.G.G.<.D H +.fXyXtXyXyXyXyXyXyXyXyXyXyXyXyXyXyXyXyX",
"yXyXyXyXyXyXyXyXiXrXhXhXyXpXpXyXyXqX%.! z.v.U.b.W E w 5 5 z B B x x B - 8.U.F.S.G.m | [ . sXuXuXyXyXyXyXyXyXyXyXyXyXyXyXyXyXyXyX",
"yXyXyXyXyXyXyXyXyXpXyXyXpXyXyXyXsX>X+ N.z.v.M.!.: v Z O O . O O O O O O 7.b.s.F.G.M / { # qXyXyXyXyXyXyXyXyXyXyXyXyXyXyXyXyXyXyX",
"yXyXyXyXyXyXyXyXyXyXuXyXhXyXyXsXoXO o.x.*Xx.+ + | o.Z ` 7XgXsXaXdX7XqXeXE <.Y.S.P.,.3.^ O wXsXaXyXyXyXyXyXyXyXyXyXyXyXyXyXyXyXyX",
"yXyXyXyXyXyXyXyXyXyXyXyXyXaXdX[.1 #.O.O.: t 8XO o. .S ` lXgXtXhXaXaXqXeXE / ~.T.Q.,.7.^ # wXqXdXyXyXyXyXyXyXyXyXyXyXyXyXyXyXyXyX",
"yXyXyXyXyXyXyXyXaXyXyXhXyX4XfX[.2 $.| - OX;XsX. $.6.S ` sX3XjXtXyXsX* # E 3.7.,.> 3.3.| [ & 2XdXyXyXyXyXyXyXyXyXyXyXyXyXyXyXyXyX",
"yXyXyXyXyXyXyXyXyXaXuXyXaXaXqX[.< | $.+ -XsX7X. o.o.B Y qXaXtXhX0X$X# : E 6.^ { 4 { 6.| X.O 1XaXyXyXyXyXyXyXyXyXyXyXyXyXyXyXyXyX",
"yXyXyXyXyXyXyXaXyXyXuXyX9XhXqX`.2 0.$.+ ;XqX4XX #.} S Y 2XdXyXyXdX  $. .4.| Z O wXO [ | } O 6X9XyXyXyXyXyXyXyXyXyXyXyXyXyXyXyXyX",
"yXyXyXyXyXyXaXaXaXyXtXiXyXyXsX X5 B.B.+ ;XsXdXqXO A #.U   9XaXaXyX@ N.4.6 O =.fXsXwX1 # 0.X.. #XyXyXyXyXyXyXyXyXyXyXyXyXyXyXyXyX",
"pXpXyXyXyXyXaXaXyXhXyXuXiXaXaX`.w N.N.+ -X7XaXkX6X%.r U . qXaXyXaX. V.V.x y.qXtX9XqX& # | 6.. #XyXyXyXyXyXyXyXyXyXyXyXyXyXyXyXyX",
"yXyXyXyXyXyXyXyXyXyXiXuXpXyXaX|.3 C.N.e.Z ) aXaXsX+.r [ _ a yXaXaX. B.N.A i.aXiXyXaX% # o.| O #XaXyXyXyXyXyXyXyXyXyXyXyXyXyXyXyX",
"yXyXyXyXyXyXyXyXyXyXyXyXtXhXyX:Xp.z C..X* y sXqXqX&.p #.+.  9XyXaX  i r =.$XyXpXyXaX* # $.o.T F #XtXhXyXyXyXuXyXyXyXyXyXyXyXyXyX",
"yXyXyXyXyXyXyXyXyXyXyXhXtXyXuXqXoX@ #...@ i sXhXsX_.P Y P   fXyXuXL ) P oX9XyXpXpXaX' G U #.#.0 |.jXtXyXyXyXyXyXyXyXyXyXyXyXyXyX",
"yXyXyXyXyXyXyXyXyXyXyXhXyXyXyXhX@X  . X   u aXtXyXaX>.      tXuXtXkX4XqX4XaXiXtXuXyXqX%X@ %.+.0 ].yXyXyXuXyXyXuXyXyXyXyXyXyXyXyX",
"yXyXyXyXyXyXyXyXyXyXyXyXyXyXyXyX9XaXqXsXyXyXpXiXpXaXfXqXqXfXyXtXyXyXfXqXdXaXuXpXiXyXfXqXwX6XqXsXkXtXyXuXyXyXhXyXyXyXyXyXyXyXyXyX",
"yXyXyXyXyXyXyXyXyXuXyXtXyXyXyXuXyXhXyXpXpXuXtXpXiX3XuXyX9XyXjXpXpXyXyXyXyXtXuXpXiXyXyX9X9XsXfXqX0XyXjXtXyXhXtXyXyXyXyXyXyXyXyXyX",
"yXyXyXyXyXyXyXyXyXyXyXyXyXyXyXyXiXpXtXpXuXpXpXiXiXuXyXuXjXtXpXyXuXyXyXhXyXyXyXyXuXuXyXuXyXhX4XaXaXyXyXhXtXyXyXyXyXyXyXyXyXyXyXyX",
"yXyXyXyXyXyXyXyXyXyXyXuXuXyXyXyXtXjXiXiXtXpXtXyXyXyXyX0X0XuXgXyXyXyXpXhX3XhXyXyXyXyXiXuXuXiXyXaXyXhXtXyXyXyXuXyXyXyXyXyXyXyXyXyX",
"yXyXyXyXyXyXyXyXyXyXyXyXyXyXuXyXhX3XpXuXyXyXaXaXyXyXyXyXuXtXaXaXyXuXuXuXiXpXyXaXaXyXuXiXiXtXhXyXyXyXuXtXuXyXyXyXyXyXyXyXyXyXyXyX",
"yXyXyXyXyXyXyXyXyXyXyXyXyXyXyXyXyXyXyXyXyXyXaXaXyXyXuXuXyXyXaXaXyXyXyXuXpXyXaXaXaXyXyXiXiXyXyXaXaXyXyXyXyXyXyXyXyXyXyXyXyXyXyXyX",
"yXyXyXyXyXyXyXyXyXyXyXyXyXyXyXyXaXyXyXyXyXyXaXaXyXyXyXuXuXyXaXaXyXyXyXiXpXyXaXqXaXyXyXiXiXyXaXaXaXyXyXyXyXyXyXyXyXyXyXyXyXyXyXyX",
"yXyXyXyXyXyXyXyXyXyXyXyXyXyXyXyXaXyXyXyXuXyXyXyXyXyXuXuXuXuXyXyXyXyXyXuXyXyXaXaXaXaXyXyXyXyXaXaXyXyXyXyXyXyXyXyXyXyXyXyXyXyXyXyX",
"yXyXyXyXyXyXyXyXyXyXyXyXyXyXyXyXyXyXyXuXuXuXyXyXyXyXuXuXiXiXyXyXyXyXyXyXyXyXaXaXaXaXyXyXyXyXaXaXyXyXyXyXyXyXyXyXyXyXyXyXyXyXyXyX",
"yXyXyXyXyXyXyXyXyXyXyXyXyXyXyXyXyXyXyXuXiXuXyXyXyXyXyXpXiXuXuXyXyXyXyXyXyXyXaXaXaXyXyXyXyXyXaXaXyXyXyXyXyXyXyXyXyXyXyXyXyXyXyXyX",
"yXyXyXyXyXyXyXyXyXyXyXyXyXyXyXyXyXyXyXiXiXuXuXyXyXyXyXyXpXyXyXyXyXyXyXyXyXyXyXyXyXyXyXyXyXyXyXyXyXyXyXyXyXyXyXyXyXyXyXyXyXyXyXyX",
"yXyXyXyXyXyXyXyXyXyXyXyXyXyXyXyXyXyXyXiXuXuXyXyXyXaXaXaXaXyXyXyXyXyXyXyXyXpXpXyXyXuXuXuXyXyXyXyXyXyXyXyXyXyXyXyXyXyXyXyXyXyXyXyX",
"yXyXyXyXyXyXyXyXyXyXyXyXyXyXyXyXaXyXyXiXuXuXyXyXyXaXaXaXaXyX9X0XyXyXyXyXyXyXpXpXyXuXuXuXyXyXyXyXyXyXyXyXyXyXyXyXyXyXyXyXyXyXyXyX"
};
