/* XPM */
static char *_0070d537d2c46a2f719cdd2d6b5352fqLf6XGYWrAXGQxHu[] = {
/* columns rows colors chars-per-pixel */
"64 64 248 2 ",
"   c #020C02",
".  c #0B0C07",
"X  c #0C0C0B",
"o  c #0B0704",
"O  c #100D0C",
"+  c #021501",
"@  c #091203",
"#  c #011B00",
"$  c #0C130A",
"%  c #07190B",
"&  c #12150D",
"*  c #12180E",
"=  c #170F13",
"-  c #151213",
";  c #181815",
":  c #0E1A16",
">  c #002400",
",  c #0B2805",
"<  c #152A0C",
"1  c #073903",
"2  c #133405",
"3  c #142B15",
"4  c #152C18",
"5  c #1A2A1B",
"6  c #182619",
"7  c #0E3E1B",
"8  c #143D1C",
"9  c #183516",
"0  c #20201E",
"q  c #1D3522",
"w  c #153A21",
"e  c #1B3B23",
"r  c #1E3A29",
"t  c #1D2A20",
"y  c #272C26",
"u  c #223524",
"i  c #213D25",
"p  c #2A372C",
"a  c #303B36",
"s  c #034C01",
"d  c #0B4A04",
"f  c #0B440C",
"g  c #0C4A0D",
"h  c #074708",
"j  c #15490D",
"k  c #085205",
"l  c #0C4513",
"z  c #0D4C13",
"x  c #0E4319",
"c  c #134414",
"v  c #124B14",
"b  c #14431B",
"n  c #19431C",
"m  c #154C1B",
"M  c #1A491D",
"N  c #175916",
"B  c #12590F",
"V  c #28571C",
"C  c #1C641B",
"Z  c #19681A",
"A  c #14630D",
"S  c #236B1C",
"D  c #28731E",
"F  c #154420",
"G  c #1B4223",
"H  c #1B4926",
"J  c #1C5A27",
"K  c #224524",
"L  c #23472A",
"P  c #27582A",
"I  c #37552F",
"U  c #234832",
"Y  c #334836",
"T  c #255D33",
"R  c #2A5D34",
"E  c #2B5C3A",
"W  c #295838",
"Q  c #335B35",
"!  c #325A3B",
"~  c #35563C",
"^  c #1B6524",
"/  c #1C6A23",
"(  c #1D642B",
")  c #1E6A2B",
"_  c #176823",
"`  c #226425",
"'  c #236A24",
"]  c #23642C",
"[  c #2A6429",
"{  c #226A2C",
"}  c #2B6827",
"|  c #376728",
" . c #24732C",
".. c #2B732C",
"X. c #29782B",
"o. c #367A2C",
"O. c #256332",
"+. c #2A6233",
"@. c #2B6239",
"#. c #276933",
"$. c #366638",
"%. c #2C7333",
"&. c #2C7B33",
"*. c #257432",
"=. c #3A7D3C",
"-. c #367738",
";. c #425F33",
":. c #466938",
">. c #447638",
",. c #2E5E40",
"<. c #365941",
"1. c #3B7C42",
"2. c #367740",
"3. c #336041",
"4. c #4A5C4A",
"5. c #535C53",
"6. c #5A5754",
"7. c #53574D",
"8. c #51674B",
"9. c #477C48",
"0. c #586A57",
"q. c #557755",
"w. c #527D4F",
"e. c #63715E",
"r. c #6B7668",
"t. c #70736D",
"y. c #6A726A",
"u. c #34892B",
"i. c #359526",
"p. c #35942C",
"a. c #38952D",
"s. c #37992C",
"d. c #3A9B2E",
"f. c #399926",
"g. c #2D8133",
"h. c #358D36",
"j. c #3B8D35",
"k. c #358339",
"l. c #3C833C",
"z. c #368D3B",
"x. c #3B8D3B",
"c. c #388135",
"v. c #359433",
"b. c #3A9434",
"n. c #3B9B33",
"m. c #36933A",
"M. c #3B923B",
"N. c #389936",
"B. c #3FA32F",
"V. c #418C3C",
"C. c #48873B",
"Z. c #42933B",
"A. c #449A36",
"S. c #54993F",
"D. c #44A62E",
"F. c #4BAD3B",
"G. c #46A538",
"H. c #55AB3D",
"J. c #4DB139",
"K. c #53B436",
"L. c #54B836",
"P. c #54B43C",
"I. c #5AB53C",
"U. c #55B93B",
"Y. c #5BB73B",
"T. c #60AC3F",
"R. c #3B8543",
"E. c #3C8C42",
"W. c #378A41",
"Q. c #3D9242",
"!. c #3F9449",
"~. c #438644",
"^. c #448C43",
"/. c #4A8B44",
"(. c #4D854A",
"). c #448A4B",
"_. c #4E8A4B",
"`. c #548649",
"'. c #419241",
"]. c #4D9D43",
"[. c #4A9645",
"{. c #59964B",
"}. c #4C8550",
"|. c #5A9B52",
" X c #598557",
".X c #679457",
"XX c #628954",
"oX c #4DAD40",
"OX c #4CA342",
"+X c #52A343",
"@X c #54AB43",
"#X c #5BAD44",
"$X c #5CAD4C",
"%X c #57AA4D",
"&X c #55B442",
"*X c #5BB244",
"=X c #56B942",
"-X c #5ABC44",
";X c #5CB34C",
":X c #59B64A",
">X c #5EAC52",
",X c #5BA652",
"<X c #5CB253",
"1X c #65AC4C",
"2X c #65AA4B",
"3X c #61B143",
"4X c #60B549",
"5X c #62AB53",
"6X c #69A756",
"7X c #71A55B",
"8X c #67B154",
"9X c #739A63",
"0X c #79837A",
"qX c #71A766",
"wX c #808978",
"eX c #8A9B88",
"rX c #9BA897",
"tX c #96B289",
"yX c #A2AD9F",
"uX c #A4B89D",
"iX c #9EA4A2",
"pX c #B7BBB5",
"aX c #ABB1A8",
"sX c #BEC6BB",
"dX c #C9D7BE",
"fX c #CBD6C7",
"gX c #D3D7CE",
"hX c #DBE4D7",
"jX c #E2E6DD",
"kX c #EDF8EC",
"lX c #F2FEEB",
"zX c #F5FDF4",
"xX c #FAFCF6",
"cX c #F6FDFA",
"vX c #FBFEFD",
"bX c #FEFFFD",
"nX c #FFFFFD",
"mX c #FEFEFC",
"MX c #FFFDFF",
"NX c #FCFFFF",
"BX c #FFFEFF",
"VX c #FEFFFF",
"CX c white",
"ZX c #FEFEFE",
"AX c #FDFDFD",
"SX c #FEFEFD",
"DX c #F8F7F7",
"FX c #E2E6E2",
/* pixels */
"CXCXCXCXCXCXCXCXCXCXCXCXCXCXCXCXCXmXvXvXCXCXCXCXCXCXCXvXCXCXMXAXCXCXCXCXCXCXAXCXCXvXvXvXCXCXmXmXCXCXCXCXCXCXCXCXCXCXCXCXCXCXCXCX",
"CXCXCXCXCXCXCXCXCXCXCXCXCXCXCXCXCXCXCXCXCXCXCXCXCXCXvXCXCXAXCXCXmXCXCXAXCXCXmXCXCXCXCXCXCXCXCXCXCXCXCXCXCXCXCXCXCXCXCXCXCXCXCXCX",
"CXCXCXCXCXCXCXCXCXCXCXCXCXCXCXCXCXCXCXCXCXCXCXCXCXCXCXmXxXCXCXxXxXmXxXCXCXmXxXmXCXCXCXCXCXCXCXCXCXCXCXCXCXCXCXCXCXCXCXCXCXCXCXCX",
"CXCXCXCXCXCXCXCXCXCXCXCXCXCXCXCXCXCXCXCXCXCXCXCXCXAXCXCXCXxXcXvXvXCXCXmXmXmXmXmXCXCXCXCXCXCXCXCXCXCXCXCXCXCXCXCXCXCXCXCXCXCXCXCX",
"CXCXCXCXCXCXCXCXCXCXCXCXCXCXCXCXCXCXCXCXCXCXCXCXCXCXAXmXCXCXxXvXCXAXCXCXCXCXxXmXmXmXCXCXCXCXCXCXCXCXCXCXCXCXCXCXCXCXCXCXCXCXCXCX",
"CXCXCXCXCXCXCXCXCXCXCXCXCXCXCXCXCXCXCXCXCXCXmXmXxXCXCXCXCXAXCXxXCXCXCXAXCXCXCXCXCXCXCXCXCXCXCXCXCXCXCXCXCXCXCXCXCXCXCXCXCXCXCXCX",
"CXCXCXCXCXCXCXCXCXCXCXCXCXCXCXCXCXCXCXCXCXmXmXmXmXxXCXCXCXCXmXmXCXmXCXCXCXCXCXvXCXCXCXCXCXCXCXCXCXCXCXCXCXCXCXCXCXCXCXCXCXCXCXCX",
"CXCXCXCXCXCXCXCXCXCXCXCXCXCXCXCXCXCXCXCXvXvXmXmXxXmXmXpXt.y.r.r.r.y.t.y.y.zXvXvXCXCXCXCXCXCXCXCXCXCXCXCXCXCXCXCXCXCXCXCXCXCXCXCX",
"CXCXCXCXCXCXCXCXCXCXCXCXCXCXCXCXmXmXCXvXvXCXmXmXmXmXxXwX@ + # # + + + + @ kXvXvXCXAXCXCXCXvXCXCXCXCXCXCXCXCXCXCXCXCXCXCXCXCXCXCX",
"CXCXCXCXCXCXCXCXCXCXCXCXCXCXCXCXCXCXAXvXCXCXCXCXmXzXr.8.:.| :.| P P P I Y r.r.t.CXCXCXAXCXCXmXCXCXCXCXCXCXCXCXCXCXCXCXCXCXCXCXCX",
"CXCXCXCXCXCXCXCXCXCXCXCXCXCXCXCXCXAXCXCXCXAXAXCXxXlX# | 7X6X6X6XC.C./.(.w.# + % DXCXCXCXCXCXxXCXCXCXCXCXCXCXCXCXCXCXCXCXCXCXCXCX",
"CXCXCXCXCXCXCXCXCXCXCXCXCXCXCXCXAXCXCXAXCXAXCXyXrXtXj o.2X1X+X+Xb.j.V.^.(.1 < 4 rXDXAXAXAXCXCXmXCXCXCXCXCXCXCXCXCXCXCXCXCXCXCXCX",
"CXCXCXCXCXCXCXCXCXCXCXCXCXCXCXCXCXCXCXCXCXmXxX< # > 6X1X4XH.i.a.s.v.b.M.~.[ R Y + FXCXCXCXAXCXCXCXCXCXCXCXCXCXCXCXCXCXCXCXCXCXCX",
"CXCXCXCXCXCXCXCXCXCXCXCXCXCXCXCXCXxXAXmXAXhX+ 9X7X6X#X*XI.f.i.p.i.p.v.z.E.{ +.E <.% $ CXAXCXCXCXCXCXCXCXCXCXCXCXCXCXCXCXCXCXCXCX",
"CXCXCXCXCXCXCXCXCXCXCXCXCXCXCXCXxXCXCXCXmXfX# .X2XH.4XK.F.f.i.s.v.v.v.m.!.^ ] @.! % + zXCXCXCXCXCXCXCXCXCXCXCXCXCXCXCXCXCXCXCXCX",
"CXCXCXCXCXCXCXCXCXCXCXCXCXCXCXCXCXxXCXCXsXI `.2X3XY.K.U.F.s.p.p.v.v.m.m.Q.) O.O.E L Y Y hXCXCXCXCXCXCXCXCXCXCXCXCXCXCXCXCXCXCXCX",
"CXCXCXvXvXCXCXCXCXxXCXxXmXmXmXCXvXCXAXCXaX, 7X3XI.L.L.U.F.p.a.p.b.b.M.z.E.( O.O.R ! ~ + gXxXDXAXCXAXCXCXxXmXxXCXCXCXCXCXCXCXCXmX",
"CXCXCXvXvXCXCXCXmXmXAXCXCXxXmXCXCXAXvXxXuX2 2X3XY.L.U.J.n.p.v.b.h.'.&.&.&.( O.O.E ! ~ 3 8.0.e.e.FXCXCXmXxXmXmXmXCXCXCXCXCXCXmXmX",
"CXCXCXCXCXCXCXmXmXmXCXCXCXCXCXAXCXvXvXxXuX> 8XI.Y.K.U.D.v.v.v.b.M.E.{ ( { ( O.@.E ,.~ K > # # + fXmXxXmXmXmXAXCXCXCXCXCXCXCXCXmX",
"mXCXCXCXCXCXCXCXmXmXAXAXCXCXmXCXmXyX+ + 9 `.1X*XK.=Xi.p.b.m.z.Q.Z ^ #.O.] ] +.T b b b c .XqXqX9X3 + @ jXmXCXAXxXCXCXCXCXCXCXCXCX",
"mXmXCXCXCXCXCXCXmXmXCXCXCXAXCXxXxXrX# # 1 /.5X>X;X@Xn.p.b.m.E.E.{ ] #.O.T @.R T f h d s S.2X2X6X1 #   hXDXmXCXCXCXCXmXmXCXCXCXCX",
"mXmXCXCXCXCXCXmXmXmXCXCXCXmXxX  + 9 `._.V.c.k s k j.x.x.m.M.C { J O.O.R R F F H qX5X>X;X#X*X*X$X[.(. X, aXmXCXAXCXmXmXmXCXCXCXCX",
"mXCXCXCXCXCXCXCXmXmXCXCXfXfXdX< 2 V /.j.b.h.k B N l.l.l.k.R.{ ( @.@.T T ! 8 8 v 5X;X:XF.:XoX@X@XZ.V.(.2 eXfXmXCXCXmXmXmXCXCXCXCX",
"CXCXCXCXCXCXCXmXmXmXCXxX5 9 2 .X{.{.j.b.v.h.l.~.=.v m m N ).] O.E W H b b c c g >X;X&Xd.s.s.n.v.b.M.~.9.K 9 zXxXCXCXmXmXCXCXCXCX",
"CXCXCXCXCXmXCXCXmXjXfXfX2 2 1 6X5XH.n.b.v.m.E.R.1.m 8 8 H 9.J T W W M c V N N N ].+X;Xp.p.n.p.n.v.b.x./.c , fXkXmXCXCXCXvXCXCXCX",
"CXCXCXCXmXmXCXxXzXr.@ + 9X6X1X*X*XF.p.v.N.m.z.{ ] @.8 K 8 8 b 8 G 8 c d 6X5X5X%Xs Z.u.M.b.p.v.v.p.p.v.^._.w.# yXmXCXAXCXCXAXCXCX",
"CXCXCXCXCXCXCXzXlXr.+ > 6X2X*X&X:X@Xp.p.v.m.Q.) ] R e q e K w e 8 9 1 d $X;X;X%Xs x.V.j.Z.b.b.b.n.p.v.z.~. X+ yXmXCXCXCXAXCXmXmX",
"CXCXCXCXCXmXCXkX+ ;.9X6X1X*XU.U.d.p.p.v.N.m.z.) ] @.G w e q q e n j /.5X*X*XoXp.M.s s V.V.x.Z.h.p.v.m.x. .P q.u 5.mXCXCXCXmXCXmX",
"CXCXCXCXCXAXmXzX# | 6X1XI.K.U.G.n.p.n.p.v.M.z.{ O.T H G G r r w c } S.*X&XF.G.m.z.Z C ..%.%... .h.v.z.Q...] q.9 5.CXCXCXCXCXCXmX",
"CXCXCXCXCXmXzXlX# | 8XH.Y.U.-Xi.p.p.p.v.m.Q.R.) O.R R L e w q e c 6X#XI.&Xi.v.v.M.E.^.h l l h g h.z.Q.E.%.P Q 4 5.mXCXCXmXCXmXCX",
"mXmXCXCXCXCXpXeXV C.3XK.L.L.D.s.v.v.v.b.x.-.&.( O.O.R P 8 8 e F f ,X#XK.P.d.p.v.m.E.V.' m l z ' k.z.g.%.] @.Q 4 4.xXxXmXCXCXCXCX",
"mXCXCXCXCXmXy.# 7X2XI.U.L.D.f.p.v.v.m.'.-.' ^ { ] ] ` J c c b l h ,X*XP.=Xi.p.v.M.z.V.^.z f g ~.x.x./ ] ] E ~ 4 0.zXCXCXmXmXCXCX",
"CXCXcXvXCXmXy.# 7XT.I.K.L.F.i.v.v.h.z.R.-.] C ..o.D X.D B C N C B $X*XU.F.s.v.v.v.m.x.x.A B B '.x.z./ ] O.E ~ 5 5.CXCXCXmXmXmXxX",
"CXCXvXcXCXxXe.# 2XI.Y.K.=XF.p.v.M.g.^ { ] ` Z >X#X*X*X4X$X$X>X>Xj.;X*X&Xp.p.v.v.v.v.h.M.M.x.Z.h.m.z.' ^ O.R ! 3 4.mXxXmXxXCXAXCX",
"CXCXcXcXvXe.:.C.4XK.P.P.D.d.p.m.g. .( #.` ..Z.@X*XI.K.I.*X*XA.A.a.A.A.A.n.v.v.m.m.m.m.M.z.z.m.Q.Q.z.k.l.J m M Q 4.5.mXCXCXCXCXCX",
"AXAXCXcXzX< :.6X#XU.U.&Xa.p.v.h. .) ] ( ` ' $X*XP.L.K.U.I.*Xi.i.p.p.a.i.b.m.M.Q.M.x.M.x.m.M.z.Q.z.Q.E.^.N h g -.Q + xXxXCXCXDXCX",
"AXmXCXCXxX< >.2X#X*X@XA.v.v.b.M.%.O.O.z ' ].*XU.U.-XP.G.d.n.p.s.p.a.b.b.A z.l.*.{ X. .^.&. . . .*.&.E.Z c.V.V.~.>.:.4.pXvXCXCXCX",
"mXCXmXxXmX3 >.6X8X5X+Xj.M.m.b.x.%.T O.g Z $XI.U.L.U.=XG.n.p.p.N.p.v.M.M.s ~.1.] ] ] N ).{ / ) ) ( { [.k Z.<X%X]./.}.+ rXvXvXvXvX",
"CXxXCXCXxX5 $.{.o.o.....R.Q.m.x.$.R J h S ;XK.L.U.P.F.s.p.p.p.v.v.m.g.&.' #.#.O.O.O.#.-.] ] O.J O.] ` ..].;XOXM.l.-.9 0.0XCXxXvX",
"vXCXmXmXmX6 I (.d d g g ).'.x.V.$.P l g A *XY.L.K.&Xp.v.a.v.v.v.m.W. .{ ).h m T E @.+.] O.@.T @.E R j |.>X<Xv.b.c.] $.4 $ mXmXvX",
"CXAXCXmXxX3 2 j C.~.$.z z ^ x.^.P c v |.+X*XU.f.f.p.v.v.p.b.b.m./ *.( #.] 9.$.F H W E R E H H ,.H M j {.].n.b.x.=.+.Q 4 @ xXmXCX",
"AXCXxXmXlX< 1 d V.[.-.h h C ^.~.P f d 8X;X&X:Xi.i.v.b.b.b.b.M.E.) ( ( O.` (.-.x 7 E W E 3.U w E H c d ,XZ.b.x.E.2.T Q 4 $ mXmXCX",
"CXCXxXhX< XX|.>X<X[.l.R.V...g v g } ,X@X*XJ.p.v.n.v.v.m.h.Q._ { ( ( ] ] S ~.-.l b 7 b F b 8 G F c g ^.h.M.M./ { #.T <.4 $ mXCXCX",
"CXCXCXhX> .X8X@X:XG.Z.M.x.&.f z g D $X*X-XF.s.v.v.v.v.v.M.E.^ { { { ' S S V.o.d v v m c b c c v g B E.Q.M.x.) ] T ,.<.6 @ AXCXCX",
"CXCXmXhX# .X5X*XD.p.v.m.M.&.] l ' Z.;XU.G.B.p.v.v.N.v.v.M.E._ ^ Z [.OXG.G.@XOXZ.^.[.{.d ..=.o.&.&.g.E.X.*.%.] T T W U 6 : CXCXCX",
"CXCXCXhX, .X2X$Xa.i.v.b.M.k.+.l &.[.@XP.F.p.v.v.v.v.v.b.M.E.^ / Z <X*XF.=X&X*X;X%X,X>Xk o.Z.h.M.M.Q.E.*.( O.@.E ,.W r : X AXCXmX",
"CXAXvXzXzX, | 8X$XOXb.m.z.W.] ] k.M.p.a.a.v.m.m.v.v.v.z.W._ ( ' Z @X&X-X&XP.oXi.b.b.Z.'.M.v.n.v.h.Q.).O.@.E 8 8 w r r ; O CXmXxX",
"CXCXvXxXzX3 :.7X6X].M.'.E.=.] ] k.M.b.b.b.m.x.M.x.M.Q.Q.R.{ ] { Z %X&XP.&X&XoXs.p.b.h.h.M.b.v.m.Q.~.}.$.! <.i e i r p ; O AXmXmX",
"CXmXCXCXcXzXq.# w.-.[ ] ] ] ] ).E.x.M.M.x.x.E.E.R.^ { ] ( ] ] ` >X#X*X-Xi.f.p.p.v.v.b.M.h.x.'.~.m x b e i u q p u p   iXCXCXCXCX",
"CXCXCXAXCXvXeXp 8.~ L P P R T 1.1.=.=.=.=.=.1.1.2.] J O.O.] ] ` 5X@X#X@Xa.v.p.v.M.M.x.l.-.C.-.9.H w 9 q u y p y y y a aXvXDXCXCX",
"mXmXCXCXCXvXkXzX$ @ + + i i w e n n n n n b b b b @.@.@.T R +.[ 5XZ.Z.j.x.Z.V.^.~.).}.l b 8 G 8 u u   $ . . o O . . DXDXAXCXCXAX",
"CXCXCXAXCXCXCXCX6.5.5.5.6 6 5 t 5 5 5 5 4 4 4 4 4 L G K L K K n >.} } } [ [ [ +.Q Q $.3 9 3 5 5 5 6 6.6.7.6.6.6.6.7.CXCXCXCXCXCX",
"CXCXCXCXCXCXCXAXmXAXCXCXX X X X X X X . . . . . $ .   @ +   + # + + + + + + + + + + + + @ .   . . 0 mXmXCXmXAXDXAXAXCXAXCXCXAXCX",
"vXvXCXCXAXCXCXCXCXCXCXCXO - - = = = = = = = - - - O ; & & - * $ * * $ * * * * $ * * * $ & & ; O - y CXCXAXCXDXCXCXCXCXCXCXCXCXCX",
"vXvXvXCXCXCXCXCXCXmXCXCXCXCXCXCXCXCXCXCXCXCXCXCXCXAXCXCXAXmXCXmXCXCXAXCXmXxXmXCXxXCXxXCXCXCXvXvXCXCXAXAXCXAXCXCXAXvXvXCXAXCXCXCX",
"CXCXCXCXCXCXCXmXCXCXCXCXCXmXCXxXCXCXCXCXCXCXCXCXCXCXCXCXCXCXCXCXCXCXCXCXCXCXCXCXCXCXCXCXCXCXvXCXCXCXCXCXCXAXCXAXCXvXCXCXCXCXCXCX",
"CXCXCXCXCXCXmXmXmXmXmXmXmXmXmXmXCXCXCXCXCXCXCXCXCXCXCXCXCXCXCXCXmXCXCXCXCXmXCXCXCXCXCXCXCXCXCXCXCXCXCXCXCXCXCXCXCXCXCXCXCXCXCXCX",
"CXCXCXCXCXCXmXmXCXCXCXCXmXmXmXmXCXCXCXCXCXCXCXCXCXCXCXCXCXCXCXCXmXCXCXCXCXCXCXCXCXCXCXCXCXCXCXCXCXmXCXCXCXCXCXCXCXCXCXCXCXCXCXCX",
"CXCXCXCXmXmXCXCXCXCXCXCXCXCXCXCXCXCXCXCXCXCXCXCXCXCXmXmXCXCXCXCXCXCXCXCXCXCXCXCXCXCXCXCXmXmXmXmXmXmXmXmXCXCXCXCXCXCXCXCXCXCXCXCX",
"CXCXCXCXmXmXmXCXCXCXCXCXCXCXCXCXCXCXCXCXCXCXCXCXCXCXmXCXCXCXCXCXCXCXCXCXCXCXCXCXCXCXCXmXmXmXmXmXmXmXmXmXCXCXCXCXCXCXCXCXCXCXCXCX",
"CXCXCXCXmXmXmXCXCXCXCXCXCXCXCXCXCXCXCXCXCXCXCXCXCXCXCXCXCXCXCXCXCXCXvXvXvXCXCXCXCXCXCXCXCXCXCXCXCXCXCXCXCXCXCXCXCXCXCXCXCXvXvXvX",
"CXCXCXCXmXmXCXCXCXCXCXCXCXCXCXCXCXCXCXCXCXCXCXCXCXCXCXCXCXCXCXCXCXCXCXCXCXCXCXCXCXCXCXCXCXCXCXCXCXmXCXCXCXCXCXCXCXCXCXCXCXCXvXvX",
"CXCXCXCXmXmXmXmXCXCXCXCXCXCXmXmXCXCXCXCXCXCXCXCXCXmXmXmXCXCXCXCXCXCXCXCXCXCXCXCXCXCXCXCXCXCXCXCXCXCXCXCXCXCXCXCXCXCXCXCXCXCXCXCX",
"CXCXCXCXCXmXmXmXCXCXCXCXCXmXmXmXCXCXCXCXCXCXCXCXCXmXmXmXCXCXCXCXCXmXCXCXCXCXCXCXCXCXCXCXCXCXCXCXCXCXCXCXCXCXCXCXCXCXCXCXCXCXCXCX"
};
